<svg width="136" height="47" viewBox="0 0 136 47" fill="none" xmlns="http://www.w3.org/2000/svg">
<g filter="url(#filter0_d_44_26)">
<path fill-rule="evenodd" clip-rule="evenodd" d="M40 0H28V12H40V0ZM38.2856 1.71425H29.7142V10.2857H38.2856V1.71425Z" fill="#51B97E"/>
<rect x="31.4285" y="3.42853" width="5.14286" height="5.14286" fill="#51B97E"/>
<mask id="path-3-outside-1_44_26" maskUnits="userSpaceOnUse" x="2" y="4.47" width="128" height="32" fill="black">
<rect fill="white" x="2" y="4.47" width="128" height="32"/>
<path fill-rule="evenodd" clip-rule="evenodd" d="M29.8768 16V30.97H32.3618V16H29.8768ZM63.7229 11V30.97H66.3129V23.235H72.8929C76.0195 23.235 78.4695 22.5 80.2429 21.03C82.0162 19.5367 82.9029 17.4833 82.9029 14.87C82.9029 12.2567 82.0162 10.2033 80.2429 8.71C78.4695 7.21667 76.0195 6.47 72.8929 6.47H69V8.71H72.8229C75.2495 8.71 77.1045 9.24667 78.3879 10.32C79.6712 11.37 80.3129 12.8867 80.3129 14.87C80.3129 16.8067 79.6712 18.3117 78.3879 19.385C77.1045 20.435 75.2495 20.96 72.8229 20.96H66.3129V11H63.7229ZM4 30.97V11H6.59V20.96H13.1C15.5267 20.96 17.3817 20.435 18.665 19.385C19.9483 18.3117 20.59 16.8067 20.59 14.87C20.59 12.8867 19.9483 11.37 18.665 10.32C17.3817 9.24667 15.5267 8.71 13.1 8.71H9V6.47H13.17C16.2967 6.47 18.7467 7.21667 20.52 8.71C22.2933 10.2033 23.18 12.2567 23.18 14.87C23.18 17.4833 22.2933 19.5367 20.52 21.03C18.7467 22.5 16.2967 23.235 13.17 23.235H6.59V30.97H4ZM44.1062 29.955C45.5528 30.7483 47.1862 31.145 49.0062 31.145C50.5695 31.145 51.9812 30.8417 53.2412 30.235C54.5012 29.605 55.4928 28.695 56.2162 27.505L54.3612 26.245C53.7545 27.155 52.9845 27.8317 52.0512 28.275C51.1178 28.7183 50.1028 28.94 49.0062 28.94C47.6762 28.94 46.4745 28.6483 45.4012 28.065C44.3512 27.4583 43.5228 26.6183 42.9162 25.545C42.3328 24.4483 42.0412 23.1883 42.0412 21.765C42.0412 20.365 42.3328 19.1167 42.9162 18.02C43.5228 16.9233 44.3512 16.0833 45.4012 15.5C46.4745 14.8933 47.6762 14.59 49.0062 14.59C50.1028 14.59 51.1178 14.8233 52.0512 15.29C52.9845 15.7333 53.7545 16.41 54.3612 17.32L56.2162 16.06C55.4928 14.87 54.5012 13.9717 53.2412 13.365C52.0045 12.735 50.5928 12.42 49.0062 12.42C47.1862 12.42 45.5528 12.8167 44.1062 13.61C42.6828 14.4033 41.5628 15.5117 40.7462 16.935C39.9295 18.3583 39.5212 19.9683 39.5212 21.765C39.5212 23.5617 39.9295 25.1833 40.7462 26.63C41.5628 28.0533 42.6828 29.1617 44.1062 29.955ZM101.877 14.24C100.594 13.0267 98.7506 12.42 96.3472 12.42C94.9006 12.42 93.5239 12.6417 92.2172 13.085C90.9106 13.505 89.7906 14.1117 88.8572 14.905L89.9772 16.76C90.7472 16.0833 91.6689 15.5583 92.7422 15.185C93.8156 14.7883 94.9356 14.59 96.1022 14.59C97.8056 14.59 99.1006 15.01 99.9872 15.85C100.874 16.6667 101.317 17.8683 101.317 19.455V20.575H95.4722C92.9989 20.575 91.1906 21.0533 90.0472 22.01C88.9272 22.9667 88.3672 24.2267 88.3672 25.79C88.3672 27.4 88.9739 28.695 90.1872 29.675C91.4006 30.655 93.0339 31.145 95.0872 31.145C96.5806 31.145 97.8639 30.8767 98.9372 30.34C100.034 29.8033 100.862 29.0567 101.422 28.1V30.97H103.802V19.56C103.802 17.2033 103.161 15.43 101.877 14.24ZM99.0772 28.24C98.0739 28.87 96.8722 29.185 95.4722 29.185C94.0022 29.185 92.8589 28.8817 92.0422 28.275C91.2256 27.645 90.8172 26.7933 90.8172 25.72C90.8172 23.5267 92.3922 22.43 95.5422 22.43H101.317V25.44C100.827 26.6533 100.081 27.5867 99.0772 28.24ZM127.78 12.56L118.575 33.175C118.277 33.863 117.961 34.4713 117.627 35H114.743C115.303 34.5236 115.822 33.7636 116.3 32.72L117.105 30.935L108.88 12.56H111.47L118.4 28.205L125.33 12.56H127.78Z"/>
</mask>
<path fill-rule="evenodd" clip-rule="evenodd" d="M29.8768 16V30.97H32.3618V16H29.8768ZM63.7229 11V30.97H66.3129V23.235H72.8929C76.0195 23.235 78.4695 22.5 80.2429 21.03C82.0162 19.5367 82.9029 17.4833 82.9029 14.87C82.9029 12.2567 82.0162 10.2033 80.2429 8.71C78.4695 7.21667 76.0195 6.47 72.8929 6.47H69V8.71H72.8229C75.2495 8.71 77.1045 9.24667 78.3879 10.32C79.6712 11.37 80.3129 12.8867 80.3129 14.87C80.3129 16.8067 79.6712 18.3117 78.3879 19.385C77.1045 20.435 75.2495 20.96 72.8229 20.96H66.3129V11H63.7229ZM4 30.97V11H6.59V20.96H13.1C15.5267 20.96 17.3817 20.435 18.665 19.385C19.9483 18.3117 20.59 16.8067 20.59 14.87C20.59 12.8867 19.9483 11.37 18.665 10.32C17.3817 9.24667 15.5267 8.71 13.1 8.71H9V6.47H13.17C16.2967 6.47 18.7467 7.21667 20.52 8.71C22.2933 10.2033 23.18 12.2567 23.18 14.87C23.18 17.4833 22.2933 19.5367 20.52 21.03C18.7467 22.5 16.2967 23.235 13.17 23.235H6.59V30.97H4ZM44.1062 29.955C45.5528 30.7483 47.1862 31.145 49.0062 31.145C50.5695 31.145 51.9812 30.8417 53.2412 30.235C54.5012 29.605 55.4928 28.695 56.2162 27.505L54.3612 26.245C53.7545 27.155 52.9845 27.8317 52.0512 28.275C51.1178 28.7183 50.1028 28.94 49.0062 28.94C47.6762 28.94 46.4745 28.6483 45.4012 28.065C44.3512 27.4583 43.5228 26.6183 42.9162 25.545C42.3328 24.4483 42.0412 23.1883 42.0412 21.765C42.0412 20.365 42.3328 19.1167 42.9162 18.02C43.5228 16.9233 44.3512 16.0833 45.4012 15.5C46.4745 14.8933 47.6762 14.59 49.0062 14.59C50.1028 14.59 51.1178 14.8233 52.0512 15.29C52.9845 15.7333 53.7545 16.41 54.3612 17.32L56.2162 16.06C55.4928 14.87 54.5012 13.9717 53.2412 13.365C52.0045 12.735 50.5928 12.42 49.0062 12.42C47.1862 12.42 45.5528 12.8167 44.1062 13.61C42.6828 14.4033 41.5628 15.5117 40.7462 16.935C39.9295 18.3583 39.5212 19.9683 39.5212 21.765C39.5212 23.5617 39.9295 25.1833 40.7462 26.63C41.5628 28.0533 42.6828 29.1617 44.1062 29.955ZM101.877 14.24C100.594 13.0267 98.7506 12.42 96.3472 12.42C94.9006 12.42 93.5239 12.6417 92.2172 13.085C90.9106 13.505 89.7906 14.1117 88.8572 14.905L89.9772 16.76C90.7472 16.0833 91.6689 15.5583 92.7422 15.185C93.8156 14.7883 94.9356 14.59 96.1022 14.59C97.8056 14.59 99.1006 15.01 99.9872 15.85C100.874 16.6667 101.317 17.8683 101.317 19.455V20.575H95.4722C92.9989 20.575 91.1906 21.0533 90.0472 22.01C88.9272 22.9667 88.3672 24.2267 88.3672 25.79C88.3672 27.4 88.9739 28.695 90.1872 29.675C91.4006 30.655 93.0339 31.145 95.0872 31.145C96.5806 31.145 97.8639 30.8767 98.9372 30.34C100.034 29.8033 100.862 29.0567 101.422 28.1V30.97H103.802V19.56C103.802 17.2033 103.161 15.43 101.877 14.24ZM99.0772 28.24C98.0739 28.87 96.8722 29.185 95.4722 29.185C94.0022 29.185 92.8589 28.8817 92.0422 28.275C91.2256 27.645 90.8172 26.7933 90.8172 25.72C90.8172 23.5267 92.3922 22.43 95.5422 22.43H101.317V25.44C100.827 26.6533 100.081 27.5867 99.0772 28.24ZM127.78 12.56L118.575 33.175C118.277 33.863 117.961 34.4713 117.627 35H114.743C115.303 34.5236 115.822 33.7636 116.3 32.72L117.105 30.935L108.88 12.56H111.47L118.4 28.205L125.33 12.56H127.78Z" fill="#21C25E"/>
<path d="M29.8768 30.97H28.4768V32.37H29.8768V30.97ZM29.8768 16V14.6H28.4768V16H29.8768ZM32.3618 30.97V32.37H33.7618V30.97H32.3618ZM32.3618 16H33.7618V14.6H32.3618V16ZM63.7229 30.97H62.3228V32.37H63.7229V30.97ZM63.7229 11V9.6H62.3228V11H63.7229ZM66.3129 30.97V32.37H67.7129V30.97H66.3129ZM66.3129 23.235V21.835H64.9128V23.235H66.3129ZM80.2429 21.03L81.1363 22.1079L81.1446 22.1009L80.2429 21.03ZM69 6.47V5.07H67.6V6.47H69ZM69 8.71H67.6V10.11H69V8.71ZM78.3879 10.32L77.4897 11.3939L77.4955 11.3988L77.5013 11.4035L78.3879 10.32ZM78.3879 19.385L79.2744 20.4685L79.2802 20.4638L79.286 20.4589L78.3879 19.385ZM66.3129 20.96H64.9128V22.36H66.3129V20.96ZM66.3129 11H67.7129V9.6H66.3129V11ZM4 11V9.6H2.6V11H4ZM4 30.97H2.6V32.37H4V30.97ZM6.59 11H7.99V9.6H6.59V11ZM6.59 20.96H5.19V22.36H6.59V20.96ZM18.665 19.385L19.5515 20.4685L19.5574 20.4638L19.5632 20.4589L18.665 19.385ZM18.665 10.32L17.7668 11.3939L17.7726 11.3988L17.7785 11.4035L18.665 10.32ZM9 8.71H7.6V10.11H9V8.71ZM9 6.47V5.07H7.6V6.47H9ZM20.52 8.71L19.6182 9.78088L19.6182 9.78088L20.52 8.71ZM20.52 21.03L21.4135 22.1079L21.4218 22.1009L20.52 21.03ZM6.59 23.235V21.835H5.19V23.235H6.59ZM6.59 30.97V32.37H7.99V30.97H6.59ZM44.1062 29.955L43.4246 31.1779L43.433 31.1825L44.1062 29.955ZM53.2412 30.235L53.8485 31.4964L53.8579 31.4919L53.8673 31.4872L53.2412 30.235ZM56.2162 27.505L57.4125 28.2322L58.1039 27.0948L57.0028 26.3469L56.2162 27.505ZM54.3612 26.245L55.1478 25.0869L53.9796 24.2934L53.1963 25.4684L54.3612 26.245ZM45.4012 28.065L44.7008 29.2772L44.7166 29.2864L44.7327 29.2951L45.4012 28.065ZM42.9162 25.545L41.6801 26.2025L41.6886 26.2183L41.6974 26.2339L42.9162 25.545ZM42.9162 18.02L41.6911 17.3423L41.6856 17.3524L41.6801 17.3625L42.9162 18.02ZM45.4012 15.5L46.0811 16.7239L46.0901 16.7188L45.4012 15.5ZM52.0512 15.29L51.4251 16.5422L51.4377 16.5485L51.4505 16.5546L52.0512 15.29ZM54.3612 17.32L53.1963 18.0966L53.9796 19.2716L55.1478 18.4781L54.3612 17.32ZM56.2162 16.06L57.0028 17.2181L58.1039 16.4702L57.4125 15.3328L56.2162 16.06ZM53.2412 13.365L52.6057 14.6125L52.6197 14.6196L52.6338 14.6264L53.2412 13.365ZM44.1062 13.61L43.433 12.3824L43.4246 12.3871L44.1062 13.61ZM40.7462 16.935L39.5319 16.2383L40.7462 16.935ZM40.7462 26.63L39.527 27.3183L39.5319 27.3267L40.7462 26.63ZM101.877 14.24L100.915 15.2574L100.925 15.2666L101.877 14.24ZM92.2172 13.085L92.6456 14.4178L92.6564 14.4144L92.667 14.4108L92.2172 13.085ZM88.8572 14.905L87.9505 13.8383L87.0434 14.6094L87.6587 15.6286L88.8572 14.905ZM89.9772 16.76L88.7787 17.4836L89.644 18.9167L90.9014 17.8116L89.9772 16.76ZM92.7422 15.185L93.2022 16.5073L93.2149 16.5029L93.2275 16.4982L92.7422 15.185ZM99.9872 15.85L99.0244 16.8663L99.0315 16.8731L99.0388 16.8798L99.9872 15.85ZM101.317 20.575V21.975H102.717V20.575H101.317ZM90.0472 22.01L89.1488 20.9363L89.1434 20.9409L89.1379 20.9455L90.0472 22.01ZM98.9372 30.34L98.3218 29.0825L98.3111 29.0878L98.9372 30.34ZM101.422 28.1H102.822V22.937L100.214 27.3928L101.422 28.1ZM101.422 30.97H100.022V32.37H101.422V30.97ZM103.802 30.97V32.37H105.202V30.97H103.802ZM99.0772 28.24L99.8217 29.4256L99.8315 29.4195L99.8412 29.4132L99.0772 28.24ZM92.0422 28.275L91.1871 29.3835L91.1972 29.3913L91.2074 29.3988L92.0422 28.275ZM101.317 22.43H102.717V21.03H101.317V22.43ZM101.317 25.44L102.615 25.9642L102.717 25.712V25.44H101.317ZM118.575 33.175L117.297 32.6042L117.293 32.6117L117.29 32.6193L118.575 33.175ZM127.78 12.56L129.058 13.1308L129.938 11.16H127.78V12.56ZM117.627 35V36.4H118.398L118.81 35.7486L117.627 35ZM114.743 35L113.836 33.9341L110.94 36.4H114.743V35ZM116.3 32.72L117.573 33.3033L117.576 33.2955L116.3 32.72ZM117.105 30.935L118.381 31.5105L118.64 30.9371L118.383 30.363L117.105 30.935ZM108.88 12.56V11.16H106.719L107.602 13.132L108.88 12.56ZM111.47 12.56L112.75 11.993L112.381 11.16H111.47V12.56ZM118.4 28.205L117.12 28.772L118.4 31.6618L119.68 28.772L118.4 28.205ZM125.33 12.56V11.16H124.419L124.05 11.993L125.33 12.56ZM31.2768 30.97V16H28.4768V30.97H31.2768ZM32.3618 29.57H29.8768V32.37H32.3618V29.57ZM30.9618 16V30.97H33.7618V16H30.9618ZM32.3618 14.6H29.8768V17.4H32.3618V14.6ZM65.1229 30.97V11H62.3228V30.97H65.1229ZM66.3129 29.57H63.7229V32.37H66.3129V29.57ZM64.9128 23.235V30.97H67.7129V23.235H64.9128ZM72.8929 21.835H66.3129V24.635H72.8929V21.835ZM79.3494 19.9522C77.9043 21.1501 75.8098 21.835 72.8929 21.835V24.635C76.2293 24.635 79.0347 23.8499 81.1363 22.1078L79.3494 19.9522ZM81.5029 14.87C81.5029 17.1293 80.756 18.7676 79.3411 19.9591L81.1446 22.1009C83.2764 20.3058 84.3029 17.8373 84.3029 14.87H81.5029ZM79.3411 9.78088C80.756 10.9724 81.5029 12.6107 81.5029 14.87H84.3029C84.3029 11.9027 83.2764 9.43425 81.1446 7.63913L79.3411 9.78088ZM72.8929 7.87C75.805 7.87 77.8963 8.56421 79.3411 9.78088L81.1446 7.63913C79.0428 5.86912 76.234 5.07 72.8929 5.07V7.87ZM69 7.87H72.8929V5.07H69V7.87ZM70.4 8.71V6.47H67.6V8.71H70.4ZM72.8229 7.31H69V10.11H72.8229V7.31ZM79.286 9.24609C77.6587 7.88504 75.4335 7.31 72.8229 7.31V10.11C75.0655 10.11 76.5504 10.6083 77.4897 11.3939L79.286 9.24609ZM81.7129 14.87C81.7129 12.558 80.9473 10.6052 79.2744 9.23646L77.5013 11.4035C78.3951 12.1348 78.9128 13.2153 78.9128 14.87H81.7129ZM79.286 20.4589C80.9394 19.0761 81.7129 17.1484 81.7129 14.87H78.9128C78.9128 16.4649 78.403 17.5472 77.4897 18.3111L79.286 20.4589ZM72.8229 22.36C75.4274 22.36 77.6478 21.7994 79.2744 20.4685L77.5013 18.3015C76.5612 19.0706 75.0716 19.56 72.8229 19.56V22.36ZM66.3129 22.36H72.8229V19.56H66.3129V22.36ZM64.9128 11V20.96H67.7129V11H64.9128ZM63.7229 12.4H66.3129V9.6H63.7229V12.4ZM2.6 11V30.97H5.4V11H2.6ZM6.59 9.6H4V12.4H6.59V9.6ZM7.99 20.96V11H5.19V20.96H7.99ZM13.1 19.56H6.59V22.36H13.1V19.56ZM17.7785 18.3015C16.8384 19.0706 15.3488 19.56 13.1 19.56V22.36C15.7046 22.36 17.9249 21.7994 19.5515 20.4685L17.7785 18.3015ZM19.19 14.87C19.19 16.4649 18.6802 17.5472 17.7668 18.3111L19.5632 20.4589C21.2165 19.0761 21.99 17.1484 21.99 14.87H19.19ZM17.7785 11.4035C18.6722 12.1348 19.19 13.2153 19.19 14.87H21.99C21.99 12.558 21.2244 10.6052 19.5515 9.23646L17.7785 11.4035ZM13.1 10.11C15.3427 10.11 16.8275 10.6083 17.7668 11.3939L19.5632 9.24609C17.9358 7.88504 15.7106 7.31 13.1 7.31V10.11ZM9 10.11H13.1V7.31H9V10.11ZM7.6 6.47V8.71H10.4V6.47H7.6ZM13.17 5.07H9V7.87H13.17V5.07ZM21.4218 7.63913C19.3199 5.86912 16.5112 5.07 13.17 5.07V7.87C16.0822 7.87 18.1734 8.56421 19.6182 9.78088L21.4218 7.63913ZM24.58 14.87C24.58 11.9027 23.5535 9.43425 21.4218 7.63913L19.6182 9.78088C21.0332 10.9724 21.78 12.6107 21.78 14.87H24.58ZM21.4218 22.1009C23.5535 20.3058 24.58 17.8373 24.58 14.87H21.78C21.78 17.1293 21.0332 18.7676 19.6182 19.9591L21.4218 22.1009ZM13.17 24.635C16.5064 24.635 19.3119 23.8499 21.4135 22.1078L19.6265 19.9522C18.1815 21.1501 16.0869 21.835 13.17 21.835V24.635ZM6.59 24.635H13.17V21.835H6.59V24.635ZM7.99 30.97V23.235H5.19V30.97H7.99ZM4 32.37H6.59V29.57H4V32.37ZM49.0062 29.745C47.3967 29.745 45.999 29.3963 44.7793 28.7275L43.433 31.1825C45.1067 32.1004 46.9756 32.545 49.0062 32.545V29.745ZM52.6338 28.9736C51.5846 29.4788 50.3842 29.745 49.0062 29.745V32.545C50.7548 32.545 52.3777 32.2046 53.8485 31.4964L52.6338 28.9736ZM55.0198 26.7778C54.4351 27.7399 53.6423 28.4692 52.6151 28.9828L53.8673 31.4872C55.3601 30.7408 56.5506 29.6501 57.4125 28.2322L55.0198 26.7778ZM53.5745 27.4031L55.4295 28.6631L57.0028 26.3469L55.1478 25.0869L53.5745 27.4031ZM52.6519 29.5396C53.8275 28.9812 54.7875 28.1295 55.526 27.0216L53.1963 25.4684C52.7215 26.1806 52.1416 26.6822 51.4505 27.0104L52.6519 29.5396ZM49.0062 30.34C50.2976 30.34 51.5194 30.0775 52.6519 29.5396L51.4505 27.0104C50.7163 27.3592 49.9081 27.54 49.0062 27.54V30.34ZM44.7327 29.2951C46.0291 29.9996 47.4639 30.34 49.0062 30.34V27.54C47.8885 27.54 46.92 27.297 46.0697 26.8349L44.7327 29.2951ZM41.6974 26.2339C42.4249 27.521 43.4306 28.5433 44.7008 29.2772L46.1016 26.8528C45.2717 26.3733 44.6208 25.7157 44.135 24.8561L41.6974 26.2339ZM40.6412 21.765C40.6412 23.3839 40.9744 24.8756 41.6801 26.2025L44.1522 24.8875C43.6913 24.0211 43.4412 22.9928 43.4412 21.765H40.6412ZM41.6801 17.3625C40.9761 18.6862 40.6412 20.1652 40.6412 21.765H43.4412C43.4412 20.5648 43.6896 19.5472 44.1522 18.6775L41.6801 17.3625ZM44.7213 14.2762C43.4318 14.9926 42.419 16.0266 41.6911 17.3423L44.1412 18.6977C44.6267 17.8201 45.2706 17.1741 46.0811 16.7238L44.7213 14.2762ZM49.0062 13.19C47.4544 13.19 46.0122 13.5465 44.7123 14.2812L46.0901 16.7188C46.9368 16.2402 47.898 15.99 49.0062 15.99V13.19ZM52.6773 14.0378C51.5396 13.469 50.3088 13.19 49.0062 13.19V15.99C49.8969 15.99 50.6961 16.1777 51.4251 16.5422L52.6773 14.0378ZM55.526 16.5434C54.7875 15.4356 53.8275 14.5838 52.6519 14.0254L51.4505 16.5546C52.1416 16.8828 52.7215 17.3845 53.1963 18.0966L55.526 16.5434ZM55.4295 14.9019L53.5745 16.1619L55.1478 18.4781L57.0028 17.2181L55.4295 14.9019ZM52.6338 14.6264C53.6511 15.1162 54.4377 15.8295 55.0198 16.7872L57.4125 15.3328C56.548 13.9105 55.3513 12.8271 53.8485 12.1036L52.6338 14.6264ZM49.0062 13.82C50.4038 13.82 51.5924 14.0962 52.6057 14.6125L53.8767 12.1175C52.4167 11.3738 50.7819 11.02 49.0062 11.02V13.82ZM44.7793 14.8375C45.999 14.1687 47.3967 13.82 49.0062 13.82V11.02C46.9756 11.02 45.1067 11.4646 43.433 12.3825L44.7793 14.8375ZM41.9605 17.6317C42.6516 16.4273 43.5881 15.5015 44.7878 14.8329L43.4246 12.3871C41.7775 13.3051 40.4741 14.5961 39.5319 16.2383L41.9605 17.6317ZM40.9212 21.765C40.9212 20.189 41.2768 18.8233 41.9605 17.6317L39.5319 16.2383C38.5822 17.8934 38.1212 19.7477 38.1212 21.765H40.9212ZM41.9653 25.9418C41.2768 24.7221 40.9212 23.3408 40.9212 21.765H38.1212C38.1212 23.7826 38.5822 25.6446 39.527 27.3182L41.9653 25.9418ZM44.7878 28.7321C43.5881 28.0635 42.6516 27.1378 41.9605 25.9333L39.5319 27.3267C40.4741 28.9689 41.7775 30.2599 43.4246 31.1779L44.7878 28.7321ZM96.3472 13.82C98.5241 13.82 99.9739 14.3671 100.915 15.2573L102.839 13.2227C101.214 11.6862 98.977 11.02 96.3472 11.02V13.82ZM92.667 14.4108C93.8219 14.0189 95.0461 13.82 96.3472 13.82V11.02C94.755 11.02 93.2259 11.2644 91.7674 11.7592L92.667 14.4108ZM89.7639 15.9717C90.5409 15.3113 91.4933 14.7882 92.6456 14.4178L91.7888 11.7522C90.3279 12.2218 89.0402 12.9121 87.9505 13.8383L89.7639 15.9717ZM91.1757 16.0364L90.0557 14.1814L87.6587 15.6286L88.7787 17.4836L91.1757 16.0364ZM92.2823 13.8627C91.0568 14.289 89.9729 14.9 89.0531 15.7084L90.9014 17.8116C91.5216 17.2666 92.281 16.8277 93.2022 16.5073L92.2823 13.8627ZM96.1022 13.19C94.7732 13.19 93.4887 13.4166 92.2569 13.8718L93.2275 16.4982C94.1424 16.1601 95.0979 15.99 96.1022 15.99V13.19ZM100.95 14.8337C99.7157 13.6642 98.0213 13.19 96.1022 13.19V15.99C97.5898 15.99 98.4855 16.3558 99.0244 16.8663L100.95 14.8337ZM102.717 19.455C102.717 17.6072 102.194 15.9789 100.936 14.8202L99.0388 16.8798C99.5542 17.3545 99.9172 18.1295 99.9172 19.455H102.717ZM102.717 20.575V19.455H99.9172V20.575H102.717ZM95.4722 21.975H101.317V19.175H95.4722V21.975ZM90.9456 23.0837C91.7174 22.438 93.1273 21.975 95.4722 21.975V19.175C92.8705 19.175 90.6637 19.6687 89.1488 20.9363L90.9456 23.0837ZM89.7672 25.79C89.7672 24.6076 90.169 23.7472 90.9565 23.0745L89.1379 20.9455C87.6854 22.1862 86.9672 23.8458 86.9672 25.79H89.7672ZM91.0669 28.5859C90.1947 27.8815 89.7672 26.9928 89.7672 25.79H86.9672C86.9672 27.8072 87.753 29.5086 89.3076 30.7641L91.0669 28.5859ZM95.0872 29.745C93.252 29.745 91.962 29.3088 91.0669 28.5859L89.3076 30.7641C90.8391 32.0012 92.8158 32.545 95.0872 32.545V29.745ZM98.3111 29.0878C97.4739 29.5064 96.4152 29.745 95.0872 29.745V32.545C96.7459 32.545 98.2539 32.2469 99.5633 31.5922L98.3111 29.0878ZM100.214 27.3928C99.8072 28.0878 99.1972 28.6541 98.3219 29.0825L99.5526 31.5975C100.871 30.9525 101.917 30.0256 102.63 28.8073L100.214 27.3928ZM102.822 30.97V28.1H100.022V30.97H102.822ZM103.802 29.57H101.422V32.37H103.802V29.57ZM102.402 19.56V30.97H105.202V19.56H102.402ZM100.925 15.2666C101.834 16.1091 102.402 17.4523 102.402 19.56H105.202C105.202 16.9544 104.487 14.7509 102.829 13.2134L100.925 15.2666ZM95.4722 30.585C97.0871 30.585 98.5575 30.2194 99.8217 29.4256L98.3328 27.0544C97.5903 27.5206 96.6574 27.785 95.4722 27.785V30.585ZM91.2074 29.3988C92.3517 30.2489 93.8304 30.585 95.4722 30.585V27.785C94.1741 27.785 93.3661 27.5145 92.8771 27.1512L91.2074 29.3988ZM89.4172 25.72C89.4172 27.2068 90.0109 28.4761 91.1871 29.3835L92.8974 27.1665C92.4403 26.8139 92.2172 26.3799 92.2172 25.72H89.4172ZM95.5422 21.03C93.8479 21.03 92.3279 21.3171 91.1985 22.1036C89.9769 22.9541 89.4172 24.241 89.4172 25.72H92.2172C92.2172 25.0057 92.445 24.6475 92.7985 24.4014C93.244 24.0912 94.0866 23.83 95.5422 23.83V21.03ZM101.317 21.03H95.5422V23.83H101.317V21.03ZM102.717 25.44V22.43H99.9172V25.44H102.717ZM99.8412 29.4132C101.107 28.5888 102.028 27.4176 102.615 25.9642L100.019 24.9158C99.626 25.8891 99.0539 26.5846 98.3133 27.0668L99.8412 29.4132ZM119.853 33.7458L129.058 13.1308L126.502 11.9892L117.297 32.6042L119.853 33.7458ZM118.81 35.7486C119.19 35.1477 119.539 34.4729 119.86 33.7307L117.29 32.6193C117.016 33.2531 116.733 33.7949 116.444 34.2514L118.81 35.7486ZM114.743 36.4H117.627V33.6H114.743V36.4ZM115.027 32.1367C114.591 33.0884 114.177 33.6436 113.836 33.9341L115.651 36.0659C116.429 35.4036 117.052 34.4389 117.573 33.3033L115.027 32.1367ZM115.829 30.3595L115.024 32.1445L117.576 33.2955L118.381 31.5105L115.829 30.3595ZM107.602 13.132L115.827 31.507L118.383 30.363L110.158 11.988L107.602 13.132ZM111.47 11.16H108.88V13.96H111.47V11.16ZM119.68 27.638L112.75 11.993L110.19 13.127L117.12 28.772L119.68 27.638ZM124.05 11.993L117.12 27.638L119.68 28.772L126.61 13.127L124.05 11.993ZM127.78 11.16H125.33V13.96H127.78V11.16Z" fill="#21C25E" mask="url(#path-3-outside-1_44_26)"/>
</g>
<defs>
<filter id="filter0_d_44_26" x="0.600006" y="0" width="135.338" height="46.4" filterUnits="userSpaceOnUse" color-interpolation-filters="sRGB">
<feFlood flood-opacity="0" result="BackgroundImageFix"/>
<feColorMatrix in="SourceAlpha" type="matrix" values="0 0 0 0 0 0 0 0 0 0 0 0 0 0 0 0 0 0 127 0" result="hardAlpha"/>
<feOffset dx="2" dy="6"/>
<feGaussianBlur stdDeviation="2"/>
<feComposite in2="hardAlpha" operator="out"/>
<feColorMatrix type="matrix" values="0 0 0 0 0 0 0 0 0 0 0 0 0 0 0 0 0 0 0.25 0"/>
<feBlend mode="normal" in2="BackgroundImageFix" result="effect1_dropShadow_44_26"/>
<feBlend mode="normal" in="SourceGraphic" in2="effect1_dropShadow_44_26" result="shape"/>
</filter>
</defs>
</svg>
