<svg width="382" height="240" viewBox="0 0 382 240" fill="none" xmlns="http://www.w3.org/2000/svg">
<path d="M0 15C0 6.71573 6.71573 0 15 0H367C375.284 0 382 6.71573 382 15V225C382 233.284 375.284 240 367 240H15C6.71572 240 0 233.284 0 225V15Z" fill="url(#paint0_linear_117_2)"/>
<g style="mix-blend-mode:color-burn">
<mask id="mask0_117_2" style="mask-type:alpha" maskUnits="userSpaceOnUse" x="0" y="0" width="382" height="240">
<g style="mix-blend-mode:darken">
<path d="M0 15C0 6.71573 6.71573 0 15 0H367C375.284 0 382 6.71573 382 15V225C382 233.284 375.284 240 367 240H15C6.71572 240 0 233.284 0 225V15Z" fill="url(#paint1_linear_117_2)"/>
</g>
</mask>
<g mask="url(#mask0_117_2)">
<path fill-rule="evenodd" clip-rule="evenodd" d="M2.89645 54.4732L-5.62611 51.4037L-8.95173 60.6374L-0.429161 63.7069L2.89645 54.4732ZM1.20387 55.3538L-4.88368 53.1613L-7.25912 59.7569L-1.17157 61.9494L1.20387 55.3538Z" fill="black" fill-opacity="0.38"/>
<path fill-rule="evenodd" clip-rule="evenodd" d="M16.1312 80.1028L1.92694 74.987L-3.61575 90.3766L10.5885 95.4924L16.1312 80.1028ZM13.3102 81.5705L3.16424 77.9164L-0.794823 88.9089L9.35109 92.563L13.3102 81.5705Z" fill="black" fill-opacity="0.38"/>
<rect x="4.40172" y="80.8457" width="6.47034" height="7.01025" transform="rotate(19.807 4.40172 80.8457)" fill="black" fill-opacity="0.38"/>
<path fill-rule="evenodd" clip-rule="evenodd" d="M36.0397 66.4101L27.5172 63.3406L24.1916 72.5743L32.7141 75.6438L36.0397 66.4101ZM34.3472 67.2907L28.2596 65.0982L25.8842 71.6938L31.9717 73.8863L34.3472 67.2907Z" fill="black" fill-opacity="0.38"/>
<rect x="29.002" y="66.8558" width="3.8822" height="4.20615" transform="rotate(19.807 29.002 66.8558)" fill="black" fill-opacity="0.38"/>
<path fill-rule="evenodd" clip-rule="evenodd" d="M49.2746 92.0397L35.0703 86.9239L29.5277 102.313L43.7319 107.429L49.2746 92.0397ZM46.4535 93.5073L36.3076 89.8532L32.3485 100.846L42.4944 104.5L46.4535 93.5073Z" fill="black" fill-opacity="0.38"/>
<rect x="37.545" y="92.7826" width="6.47034" height="7.01025" transform="rotate(19.807 37.545 92.7826)" fill="black" fill-opacity="0.38"/>
<path fill-rule="evenodd" clip-rule="evenodd" d="M69.1832 78.347L60.6606 75.2775L57.335 84.5112L65.8575 87.5807L69.1832 78.347ZM67.4905 79.2276L61.4029 77.0351L59.0275 83.6306L65.115 85.8231L67.4905 79.2276Z" fill="black" fill-opacity="0.38"/>
<rect x="62.1454" y="78.7927" width="3.8822" height="4.20615" transform="rotate(19.807 62.1454 78.7927)" fill="black" fill-opacity="0.38"/>
<path fill-rule="evenodd" clip-rule="evenodd" d="M20.5202 109.501L11.9976 106.431L8.67202 115.665L17.1946 118.735L20.5202 109.501ZM18.8276 110.381L12.7401 108.189L10.3647 114.784L16.4522 116.977L18.8276 110.381Z" fill="black" fill-opacity="0.38"/>
<rect x="13.4825" y="109.947" width="3.8822" height="4.20615" transform="rotate(19.807 13.4825 109.947)" fill="black" fill-opacity="0.38"/>
<path fill-rule="evenodd" clip-rule="evenodd" d="M33.7551 135.13L19.5508 130.015L14.0081 145.404L28.2124 150.52L33.7551 135.13ZM30.9339 136.598L20.788 132.944L16.8289 143.936L26.9748 147.591L30.9339 136.598Z" fill="black" fill-opacity="0.38"/>
<rect x="22.0255" y="135.873" width="6.47034" height="7.01025" transform="rotate(19.807 22.0255 135.873)" fill="black" fill-opacity="0.38"/>
<path fill-rule="evenodd" clip-rule="evenodd" d="M0.611659 123.194L-13.5926 118.078L-19.1353 133.467L-4.93103 138.583L0.611659 123.194ZM-2.20934 124.661L-12.3553 121.007L-16.3143 132L-6.1684 135.654L-2.20934 124.661Z" fill="black" fill-opacity="0.38"/>
<path fill-rule="evenodd" clip-rule="evenodd" d="M82.4179 103.977L68.2136 98.8607L62.6709 114.25L76.8752 119.366L82.4179 103.977ZM79.5969 105.444L69.4509 101.79L65.4919 112.783L75.6378 116.437L79.5969 105.444Z" fill="black" fill-opacity="0.38"/>
<rect x="70.6883" y="104.719" width="6.47034" height="7.01025" transform="rotate(19.807 70.6883 104.719)" fill="black" fill-opacity="0.38"/>
<path fill-rule="evenodd" clip-rule="evenodd" d="M53.6636 121.438L45.141 118.368L41.8154 127.602L50.338 130.671L53.6636 121.438ZM51.9709 122.318L45.8834 120.126L43.5079 126.721L49.5955 128.914L51.9709 122.318Z" fill="black" fill-opacity="0.38"/>
<rect x="46.6258" y="121.883" width="3.8822" height="4.20615" transform="rotate(19.807 46.6258 121.883)" fill="black" fill-opacity="0.38"/>
<path fill-rule="evenodd" clip-rule="evenodd" d="M102.326 90.2838L93.8039 87.2144L90.4782 96.4481L99.0008 99.5176L102.326 90.2838ZM100.634 91.1645L94.5463 88.972L92.1709 95.5675L98.2584 97.76L100.634 91.1645Z" fill="black" fill-opacity="0.38"/>
<rect x="95.2887" y="90.7296" width="3.8822" height="4.20615" transform="rotate(19.807 95.2887 90.7296)" fill="black" fill-opacity="0.38"/>
<path fill-rule="evenodd" clip-rule="evenodd" d="M115.561 115.913L101.357 110.798L95.8142 126.187L110.018 131.303L115.561 115.913ZM112.74 117.381L102.594 113.727L98.6352 124.719L108.781 128.374L112.74 117.381Z" fill="black" fill-opacity="0.38"/>
<rect x="103.832" y="116.656" width="6.47034" height="7.01025" transform="rotate(19.807 103.832 116.656)" fill="black" fill-opacity="0.38"/>
<path fill-rule="evenodd" clip-rule="evenodd" d="M135.47 102.221L126.947 99.1512L123.622 108.385L132.144 111.454L135.47 102.221ZM133.777 103.101L127.69 100.909L125.314 107.504L131.402 109.697L133.777 103.101Z" fill="black" fill-opacity="0.38"/>
<rect x="128.432" y="102.666" width="3.8822" height="4.20615" transform="rotate(19.807 128.432 102.666)" fill="black" fill-opacity="0.38"/>
<path fill-rule="evenodd" clip-rule="evenodd" d="M86.8069 133.375L78.2843 130.305L74.9587 139.539L83.4813 142.608L86.8069 133.375ZM85.1143 134.255L79.0268 132.063L76.6513 138.658L82.7389 140.851L85.1143 134.255Z" fill="black" fill-opacity="0.38"/>
<rect x="79.7691" y="133.82" width="3.8822" height="4.20615" transform="rotate(19.807 79.7691 133.82)" fill="black" fill-opacity="0.38"/>
<path fill-rule="evenodd" clip-rule="evenodd" d="M100.042 159.004L85.8374 153.888L80.2947 169.278L94.499 174.394L100.042 159.004ZM97.2206 160.472L87.0747 156.818L83.1157 167.81L93.2616 171.464L97.2206 160.472Z" fill="black" fill-opacity="0.38"/>
<rect x="88.312" y="159.747" width="6.47034" height="7.01025" transform="rotate(19.807 88.312 159.747)" fill="black" fill-opacity="0.38"/>
<path fill-rule="evenodd" clip-rule="evenodd" d="M66.8984 147.067L52.6941 141.952L47.1514 157.341L61.3557 162.457L66.8984 147.067ZM64.0773 148.535L53.9314 144.881L49.9724 155.873L60.1183 159.528L64.0773 148.535Z" fill="black" fill-opacity="0.38"/>
<rect x="55.1688" y="147.81" width="6.47034" height="7.01025" transform="rotate(19.807 55.1688 147.81)" fill="black" fill-opacity="0.38"/>
<path fill-rule="evenodd" clip-rule="evenodd" d="M196.002 -3.47387L181.798 -8.58968L176.255 6.79988L190.459 11.9157L196.002 -3.47387ZM193.181 -2.00621L183.035 -5.66035L179.076 5.33218L189.222 8.98633L193.181 -2.00621Z" fill="black" fill-opacity="0.38"/>
<rect x="184.273" y="-2.73098" width="6.47034" height="7.01025" transform="rotate(19.807 184.273 -2.73098)" fill="black" fill-opacity="0.38"/>
<path fill-rule="evenodd" clip-rule="evenodd" d="M132.446 172.993L118.242 167.877L112.699 183.267L126.903 188.383L132.446 172.993ZM129.625 174.461L119.479 170.807L115.52 181.799L125.666 185.453L129.625 174.461Z" fill="black" fill-opacity="0.38"/>
<rect x="120.716" y="173.736" width="6.47034" height="7.01025" transform="rotate(19.807 120.716 173.736)" fill="black" fill-opacity="0.38"/>
<path fill-rule="evenodd" clip-rule="evenodd" d="M148.704 127.85L134.5 122.734L128.958 138.124L143.162 143.24L148.704 127.85ZM145.883 129.318L135.738 125.664L131.778 136.656L141.924 140.311L145.883 129.318Z" fill="black" fill-opacity="0.38"/>
<rect x="136.975" y="128.593" width="6.47034" height="7.01025" transform="rotate(19.807 136.975 128.593)" fill="black" fill-opacity="0.38"/>
<path fill-rule="evenodd" clip-rule="evenodd" d="M119.95 145.311L111.428 142.242L108.102 151.476L116.625 154.545L119.95 145.311ZM118.258 146.192L112.17 144L109.795 150.595L115.882 152.788L118.258 146.192Z" fill="black" fill-opacity="0.38"/>
<rect x="112.912" y="145.757" width="3.8822" height="4.20615" transform="rotate(19.807 112.912 145.757)" fill="black" fill-opacity="0.38"/>
<path fill-rule="evenodd" clip-rule="evenodd" d="M168.613 114.158L160.09 111.088L156.765 120.322L165.287 123.391L168.613 114.158ZM166.92 115.038L160.833 112.846L158.457 119.441L164.545 121.634L166.92 115.038Z" fill="black" fill-opacity="0.38"/>
<rect x="161.575" y="114.603" width="3.8822" height="4.20615" transform="rotate(19.807 161.575 114.603)" fill="black" fill-opacity="0.38"/>
<path fill-rule="evenodd" clip-rule="evenodd" d="M181.848 139.787L167.644 134.671L162.101 150.061L176.305 155.177L181.848 139.787ZM179.027 141.255L168.881 137.601L164.922 148.593L175.068 152.247L179.027 141.255Z" fill="black" fill-opacity="0.38"/>
<rect x="170.118" y="140.53" width="6.47034" height="7.01025" transform="rotate(19.807 170.118 140.53)" fill="black" fill-opacity="0.38"/>
<path fill-rule="evenodd" clip-rule="evenodd" d="M201.756 126.095L193.234 123.025L189.908 132.259L198.431 135.328L201.756 126.095ZM200.064 126.975L193.976 124.783L191.601 131.378L197.688 133.571L200.064 126.975Z" fill="black" fill-opacity="0.38"/>
<rect x="194.719" y="126.54" width="3.8822" height="4.20615" transform="rotate(19.807 194.719 126.54)" fill="black" fill-opacity="0.38"/>
<path fill-rule="evenodd" clip-rule="evenodd" d="M153.093 157.248L144.571 154.179L141.245 163.413L149.768 166.482L153.093 157.248ZM151.401 158.129L145.313 155.936L142.938 162.532L149.025 164.724L151.401 158.129Z" fill="black" fill-opacity="0.38"/>
<rect x="146.056" y="157.694" width="3.8822" height="4.20615" transform="rotate(19.807 146.056 157.694)" fill="black" fill-opacity="0.38"/>
<path fill-rule="evenodd" clip-rule="evenodd" d="M229.885 6.41109L215.68 1.29529L210.138 16.6848L224.342 21.8006L229.885 6.41109ZM227.063 7.87874L216.918 4.22459L212.958 15.2171L223.104 18.8713L227.063 7.87874Z" fill="black" fill-opacity="0.38"/>
<rect x="218.155" y="7.15393" width="6.47034" height="7.01025" transform="rotate(19.807 218.155 7.15393)" fill="black" fill-opacity="0.38"/>
<path fill-rule="evenodd" clip-rule="evenodd" d="M166.328 182.878L152.124 177.762L146.581 193.152L160.786 198.267L166.328 182.878ZM163.507 184.346L153.361 180.691L149.402 191.684L159.548 195.338L163.507 184.346Z" fill="black" fill-opacity="0.38"/>
<rect x="154.599" y="183.621" width="6.47034" height="7.01025" transform="rotate(19.807 154.599 183.621)" fill="black" fill-opacity="0.38"/>
<path fill-rule="evenodd" clip-rule="evenodd" d="M249.793 -7.28162L241.271 -10.3511L237.945 -1.11737L246.467 1.95211L249.793 -7.28162ZM248.1 -6.40106L242.013 -8.59355L239.637 -1.99803L245.725 0.194461L248.1 -6.40106Z" fill="black" fill-opacity="0.38"/>
<path fill-rule="evenodd" clip-rule="evenodd" d="M186.237 169.185L177.714 166.116L174.389 175.349L182.911 178.419L186.237 169.185ZM184.544 170.066L178.457 167.873L176.081 174.469L182.169 176.661L184.544 170.066Z" fill="black" fill-opacity="0.38"/>
<rect x="179.199" y="169.631" width="3.8822" height="4.20615" transform="rotate(19.807 179.199 169.631)" fill="black" fill-opacity="0.38"/>
<path fill-rule="evenodd" clip-rule="evenodd" d="M47.9093 -8.13062L33.705 -13.2464L28.1623 2.14313L42.3666 7.25894L47.9093 -8.13062ZM45.0883 -6.66297L34.9424 -10.3171L30.9833 0.675422L41.1292 4.32957L45.0883 -6.66297Z" fill="black" fill-opacity="0.38"/>
<rect x="36.1798" y="-7.38773" width="6.47034" height="7.01025" transform="rotate(19.807 36.1798 -7.38773)" fill="black" fill-opacity="0.38"/>
<path fill-rule="evenodd" clip-rule="evenodd" d="M4.26164 154.644L-4.26093 151.574L-7.58654 160.808L0.936028 163.877L4.26164 154.644ZM2.56908 155.524L-3.51847 153.332L-5.89391 159.927L0.193643 162.12L2.56908 155.524Z" fill="black" fill-opacity="0.38"/>
<rect x="-2.77605" y="155.089" width="3.8822" height="4.20615" transform="rotate(19.807 -2.77605 155.089)" fill="black" fill-opacity="0.38"/>
<path fill-rule="evenodd" clip-rule="evenodd" d="M17.4965 180.273L3.29222 175.157L-2.25047 190.547L11.9538 195.663L17.4965 180.273ZM14.6754 181.741L4.52949 178.087L0.570424 189.079L10.7163 192.733L14.6754 181.741Z" fill="black" fill-opacity="0.38"/>
<rect x="5.76692" y="181.016" width="6.47034" height="7.01025" transform="rotate(19.807 5.76692 181.016)" fill="black" fill-opacity="0.38"/>
<path fill-rule="evenodd" clip-rule="evenodd" d="M37.405 166.58L28.8825 163.511L25.5569 172.745L34.0794 175.814L37.405 166.58ZM35.7124 167.461L29.6248 165.269L27.2494 171.864L33.3369 174.057L35.7124 167.461Z" fill="black" fill-opacity="0.38"/>
<rect x="30.3673" y="167.026" width="3.8822" height="4.20615" transform="rotate(19.807 30.3673 167.026)" fill="black" fill-opacity="0.38"/>
<path fill-rule="evenodd" clip-rule="evenodd" d="M1.97697 223.364L-12.2273 218.248L-17.77 233.638L-3.56572 238.753L1.97697 223.364ZM-0.844166 224.832L-10.9901 221.177L-14.9491 232.17L-4.80323 235.824L-0.844166 224.832Z" fill="black" fill-opacity="0.38"/>
<path fill-rule="evenodd" clip-rule="evenodd" d="M50.6398 192.21L36.4355 187.094L30.8928 202.484L45.0971 207.6L50.6398 192.21ZM47.8188 193.678L37.6728 190.023L33.7138 201.016L43.8597 204.67L47.8188 193.678Z" fill="black" fill-opacity="0.38"/>
<rect x="38.9102" y="192.953" width="6.47034" height="7.01025" transform="rotate(19.807 38.9102 192.953)" fill="black" fill-opacity="0.38"/>
<path fill-rule="evenodd" clip-rule="evenodd" d="M21.8855 209.671L13.363 206.602L10.0373 215.835L18.5599 218.905L21.8855 209.671ZM20.1928 210.552L14.1053 208.359L11.7299 214.955L17.8174 217.147L20.1928 210.552Z" fill="black" fill-opacity="0.38"/>
<rect x="14.8477" y="210.117" width="3.8822" height="4.20615" transform="rotate(19.807 14.8477 210.117)" fill="black" fill-opacity="0.38"/>
<path fill-rule="evenodd" clip-rule="evenodd" d="M134.105 2.0504L125.582 -1.01908L122.256 8.21465L130.779 11.2841L134.105 2.0504ZM132.412 2.93105L126.324 0.738565L123.949 7.33409L130.037 9.52657L132.412 2.93105Z" fill="black" fill-opacity="0.38"/>
<rect x="127.067" y="2.49614" width="3.8822" height="4.20615" transform="rotate(19.807 127.067 2.49614)" fill="black" fill-opacity="0.38"/>
<path fill-rule="evenodd" clip-rule="evenodd" d="M70.5483 178.517L62.0258 175.448L58.7001 184.682L67.2227 187.751L70.5483 178.517ZM68.8557 179.398L62.7682 177.205L60.3928 183.801L66.4803 185.993L68.8557 179.398Z" fill="black" fill-opacity="0.38"/>
<rect x="63.5106" y="178.963" width="3.8822" height="4.20615" transform="rotate(19.807 63.5106 178.963)" fill="black" fill-opacity="0.38"/>
<path fill-rule="evenodd" clip-rule="evenodd" d="M83.7831 204.147L69.5788 199.031L64.0361 214.421L78.2404 219.536L83.7831 204.147ZM80.9621 205.615L70.8162 201.96L66.8571 212.953L77.003 216.607L80.9621 205.615Z" fill="black" fill-opacity="0.38"/>
<rect x="72.0535" y="204.89" width="6.47034" height="7.01025" transform="rotate(19.807 72.0535 204.89)" fill="black" fill-opacity="0.38"/>
<path fill-rule="evenodd" clip-rule="evenodd" d="M167.248 13.9873L158.725 10.9178L155.4 20.1515L163.922 23.221L167.248 13.9873ZM165.555 14.8679L159.468 12.6754L157.092 19.271L163.18 21.4635L165.555 14.8679Z" fill="black" fill-opacity="0.38"/>
<rect x="160.21" y="14.433" width="3.8822" height="4.20615" transform="rotate(19.807 160.21 14.433)" fill="black" fill-opacity="0.38"/>
<path fill-rule="evenodd" clip-rule="evenodd" d="M103.692 190.454L95.1691 187.385L91.8434 196.618L100.366 199.688L103.692 190.454ZM101.999 191.335L95.9115 189.142L93.5361 195.738L99.6236 197.93L101.999 191.335Z" fill="black" fill-opacity="0.38"/>
<rect x="96.6539" y="190.9" width="3.8822" height="4.20615" transform="rotate(19.807 96.6539 190.9)" fill="black" fill-opacity="0.38"/>
<path fill-rule="evenodd" clip-rule="evenodd" d="M55.0288 221.608L46.5062 218.539L43.1806 227.772L51.7032 230.842L55.0288 221.608ZM53.3362 222.489L47.2487 220.296L44.8732 226.892L50.9608 229.084L53.3362 222.489Z" fill="black" fill-opacity="0.38"/>
<rect x="47.991" y="222.054" width="3.8822" height="4.20615" transform="rotate(19.807 47.991 222.054)" fill="black" fill-opacity="0.38"/>
<path fill-rule="evenodd" clip-rule="evenodd" d="M131.82 70.7707L117.615 65.6549L112.073 81.0445L126.277 86.1603L131.82 70.7707ZM128.999 72.2384L118.853 68.5843L114.894 79.5768L125.04 83.231L128.999 72.2384Z" fill="black" fill-opacity="0.38"/>
<rect x="120.09" y="71.5136" width="6.47034" height="7.01025" transform="rotate(19.807 120.09 71.5136)" fill="black" fill-opacity="0.38"/>
<path fill-rule="evenodd" clip-rule="evenodd" d="M98.6765 58.8339L84.4722 53.7181L78.9295 69.1076L93.1338 74.2234L98.6765 58.8339ZM95.8554 60.3015L85.7095 56.6474L81.7504 67.6399L91.8964 71.2941L95.8554 60.3015Z" fill="black" fill-opacity="0.38"/>
<rect x="86.9469" y="59.5767" width="6.47034" height="7.01025" transform="rotate(19.807 86.9469 59.5767)" fill="black" fill-opacity="0.38"/>
<path fill-rule="evenodd" clip-rule="evenodd" d="M35.1203 235.301L20.916 230.185L15.3733 245.575L29.5776 250.69L35.1203 235.301ZM32.2992 236.768L22.1533 233.114L18.1942 244.107L28.3402 247.761L32.2992 236.768Z" fill="black" fill-opacity="0.38"/>
<rect x="23.3907" y="236.044" width="6.47034" height="7.01025" transform="rotate(19.807 23.3907 236.044)" fill="black" fill-opacity="0.38"/>
<path fill-rule="evenodd" clip-rule="evenodd" d="M164.224 84.7596L150.02 79.6438L144.477 95.0333L158.681 100.149L164.224 84.7596ZM161.403 86.2272L151.257 82.5731L147.298 93.5656L157.444 97.2198L161.403 86.2272Z" fill="black" fill-opacity="0.38"/>
<rect x="152.495" y="85.5025" width="6.47034" height="7.01025" transform="rotate(19.807 152.495 85.5025)" fill="black" fill-opacity="0.38"/>
<path fill-rule="evenodd" clip-rule="evenodd" d="M180.483 39.6169L166.278 34.5011L160.736 49.8906L174.94 55.0064L180.483 39.6169ZM177.662 41.0845L167.516 37.4304L163.557 48.4229L173.703 52.0771L177.662 41.0845Z" fill="black" fill-opacity="0.38"/>
<rect x="168.753" y="40.3598" width="6.47034" height="7.01025" transform="rotate(19.807 168.753 40.3598)" fill="black" fill-opacity="0.38"/>
<path fill-rule="evenodd" clip-rule="evenodd" d="M116.926 216.084L102.722 210.968L97.1795 226.357L111.384 231.473L116.926 216.084ZM114.105 217.551L103.959 213.897L100 224.89L110.146 228.544L114.105 217.551Z" fill="black" fill-opacity="0.38"/>
<rect x="105.197" y="216.827" width="6.47034" height="7.01025" transform="rotate(19.807 105.197 216.827)" fill="black" fill-opacity="0.38"/>
<path fill-rule="evenodd" clip-rule="evenodd" d="M151.728 57.078L143.206 54.0086L139.88 63.2423L148.403 66.3118L151.728 57.078ZM150.036 57.9586L143.948 55.7661L141.573 62.3617L147.66 64.5542L150.036 57.9586Z" fill="black" fill-opacity="0.38"/>
<rect x="144.691" y="57.5237" width="3.8822" height="4.20615" transform="rotate(19.807 144.691 57.5237)" fill="black" fill-opacity="0.38"/>
<path fill-rule="evenodd" clip-rule="evenodd" d="M88.1721 233.545L79.6496 230.475L76.3239 239.709L84.8465 242.779L88.1721 233.545ZM86.4795 234.426L80.392 232.233L78.0165 238.829L84.1041 241.021L86.4795 234.426Z" fill="black" fill-opacity="0.38"/>
<rect x="81.1343" y="233.991" width="3.8822" height="4.20615" transform="rotate(19.807 81.1343 233.991)" fill="black" fill-opacity="0.38"/>
<path fill-rule="evenodd" clip-rule="evenodd" d="M200.391 25.9242L191.869 22.8547L188.543 32.0884L197.066 35.1579L200.391 25.9242ZM198.699 26.8048L192.611 24.6123L190.236 31.2078L196.323 33.4003L198.699 26.8048Z" fill="black" fill-opacity="0.38"/>
<rect x="193.353" y="26.3699" width="3.8822" height="4.20615" transform="rotate(19.807 193.353 26.3699)" fill="black" fill-opacity="0.38"/>
<path fill-rule="evenodd" clip-rule="evenodd" d="M136.835 202.391L128.312 199.322L124.987 208.555L133.509 211.625L136.835 202.391ZM135.142 203.272L129.055 201.079L126.679 207.675L132.767 209.867L135.142 203.272Z" fill="black" fill-opacity="0.38"/>
<rect x="129.797" y="202.837" width="3.8822" height="4.20615" transform="rotate(19.807 129.797 202.837)" fill="black" fill-opacity="0.38"/>
<path fill-rule="evenodd" clip-rule="evenodd" d="M213.626 51.5538L199.422 46.438L193.879 61.8275L208.083 66.9433L213.626 51.5538ZM210.805 53.0214L200.659 49.3673L196.7 60.3598L206.846 64.0139L210.805 53.0214Z" fill="black" fill-opacity="0.38"/>
<rect x="201.896" y="52.2966" width="6.47034" height="7.01025" transform="rotate(19.807 201.896 52.2966)" fill="black" fill-opacity="0.38"/>
<path fill-rule="evenodd" clip-rule="evenodd" d="M150.07 228.021L135.866 222.905L130.323 238.294L144.527 243.41L150.07 228.021ZM147.249 229.488L137.103 225.834L133.144 236.827L143.29 240.481L147.249 229.488Z" fill="black" fill-opacity="0.38"/>
<rect x="138.34" y="228.764" width="6.47034" height="7.01025" transform="rotate(19.807 138.34 228.764)" fill="black" fill-opacity="0.38"/>
<path fill-rule="evenodd" clip-rule="evenodd" d="M233.535 37.861L225.012 34.7916L221.686 44.0253L230.209 47.0948L233.535 37.861ZM231.842 38.7416L225.754 36.5491L223.379 43.1446L229.466 45.3371L231.842 38.7416Z" fill="black" fill-opacity="0.38"/>
<rect x="226.497" y="38.3067" width="3.8822" height="4.20615" transform="rotate(19.807 226.497 38.3067)" fill="black" fill-opacity="0.38"/>
<path fill-rule="evenodd" clip-rule="evenodd" d="M169.978 214.328L161.456 211.258L158.13 220.492L166.653 223.562L169.978 214.328ZM168.286 215.209L162.198 213.016L159.823 219.612L165.91 221.804L168.286 215.209Z" fill="black" fill-opacity="0.38"/>
<rect x="162.941" y="214.774" width="3.8822" height="4.20615" transform="rotate(19.807 162.941 214.774)" fill="black" fill-opacity="0.38"/>
<path fill-rule="evenodd" clip-rule="evenodd" d="M184.872 69.0149L176.349 65.9454L173.023 75.1792L181.546 78.2486L184.872 69.0149ZM183.179 69.8955L177.091 67.703L174.716 74.2985L180.804 76.491L183.179 69.8955Z" fill="black" fill-opacity="0.38"/>
<rect x="177.834" y="69.4607" width="3.8822" height="4.20615" transform="rotate(19.807 177.834 69.4607)" fill="black" fill-opacity="0.38"/>
<path fill-rule="evenodd" clip-rule="evenodd" d="M198.106 94.6445L183.902 89.5287L178.359 104.918L192.564 110.034L198.106 94.6445ZM195.285 96.1122L185.139 92.458L181.18 103.451L191.326 107.105L195.285 96.1122Z" fill="black" fill-opacity="0.38"/>
<rect x="186.377" y="95.3874" width="6.47034" height="7.01025" transform="rotate(19.807 186.377 95.3874)" fill="black" fill-opacity="0.38"/>
<path fill-rule="evenodd" clip-rule="evenodd" d="M218.015 80.9518L209.492 77.8823L206.167 87.116L214.689 90.1855L218.015 80.9518ZM216.322 81.8324L210.235 79.6399L207.859 86.2354L213.947 88.4279L216.322 81.8324Z" fill="black" fill-opacity="0.38"/>
<rect x="210.977" y="81.3975" width="3.8822" height="4.20615" transform="rotate(19.807 210.977 81.3975)" fill="black" fill-opacity="0.38"/>
<path fill-rule="evenodd" clip-rule="evenodd" d="M202.47 126.351L193.947 123.282L190.621 132.516L199.144 135.585L202.47 126.351ZM200.777 127.232L194.69 125.04L192.314 131.635L198.402 133.828L200.777 127.232Z" fill="black" fill-opacity="0.38"/>
<rect x="195.432" y="126.797" width="3.8822" height="4.20615" transform="rotate(19.807 195.432 126.797)" fill="black" fill-opacity="0.38"/>
<path fill-rule="evenodd" clip-rule="evenodd" d="M215.704 151.981L201.5 146.865L195.957 162.255L210.162 167.371L215.704 151.981ZM212.883 153.449L202.737 149.794L198.778 160.787L208.924 164.441L212.883 153.449Z" fill="black" fill-opacity="0.38"/>
<rect x="203.975" y="152.724" width="6.47034" height="7.01025" transform="rotate(19.807 203.975 152.724)" fill="black" fill-opacity="0.38"/>
<path fill-rule="evenodd" clip-rule="evenodd" d="M235.613 138.288L227.09 135.219L223.765 144.452L232.287 147.522L235.613 138.288ZM233.92 139.169L227.833 136.976L225.457 143.572L231.545 145.764L233.92 139.169Z" fill="black" fill-opacity="0.38"/>
<rect x="228.575" y="138.734" width="3.8822" height="4.20615" transform="rotate(19.807 228.575 138.734)" fill="black" fill-opacity="0.38"/>
<path fill-rule="evenodd" clip-rule="evenodd" d="M250.506 -7.02474L241.984 -10.0942L238.658 -0.860492L247.181 2.20899L250.506 -7.02474ZM248.814 -6.14412L242.726 -8.3366L240.351 -1.74108L246.438 0.451407L248.814 -6.14412Z" fill="black" fill-opacity="0.38"/>
<path fill-rule="evenodd" clip-rule="evenodd" d="M186.95 169.442L178.428 166.373L175.102 175.606L183.625 178.676L186.95 169.442ZM185.258 170.323L179.17 168.13L176.795 174.726L182.882 176.918L185.258 170.323Z" fill="black" fill-opacity="0.38"/>
<rect x="179.912" y="169.888" width="3.8822" height="4.20615" transform="rotate(19.807 179.912 169.888)" fill="black" fill-opacity="0.38"/>
<path fill-rule="evenodd" clip-rule="evenodd" d="M263.741 18.6048L249.537 13.489L243.994 28.8786L258.198 33.9944L263.741 18.6048ZM260.92 20.0725L250.774 16.4184L246.815 27.4109L256.961 31.065L260.92 20.0725Z" fill="black" fill-opacity="0.38"/>
<rect x="252.012" y="19.3477" width="6.47034" height="7.01025" transform="rotate(19.807 252.012 19.3477)" fill="black" fill-opacity="0.38"/>
<path fill-rule="evenodd" clip-rule="evenodd" d="M200.185 195.072L185.981 189.956L180.438 205.345L194.642 210.461L200.185 195.072ZM197.364 196.539L187.218 192.885L183.259 203.878L193.405 207.532L197.364 196.539Z" fill="black" fill-opacity="0.38"/>
<rect x="188.455" y="195.815" width="6.47034" height="7.01025" transform="rotate(19.807 188.455 195.815)" fill="black" fill-opacity="0.38"/>
<path fill-rule="evenodd" clip-rule="evenodd" d="M312.404 -12.549L298.2 -17.6648L292.657 -2.27526L306.861 2.84054L312.404 -12.549ZM309.583 -11.0813L299.437 -14.7355L295.478 -3.74294L305.624 -0.0887936L309.583 -11.0813Z" fill="black" fill-opacity="0.38"/>
<path fill-rule="evenodd" clip-rule="evenodd" d="M248.848 163.918L234.643 158.802L229.101 174.192L243.305 179.307L248.848 163.918ZM246.027 165.385L235.881 161.731L231.922 172.724L242.068 176.378L246.027 165.385Z" fill="black" fill-opacity="0.38"/>
<rect x="237.118" y="164.661" width="6.47034" height="7.01025" transform="rotate(19.807 237.118 164.661)" fill="black" fill-opacity="0.38"/>
<path fill-rule="evenodd" clip-rule="evenodd" d="M283.65 4.91213L275.127 1.84265L271.801 11.0764L280.324 14.1459L283.65 4.91213ZM281.957 5.79274L275.869 3.60026L273.494 10.1958L279.582 12.3883L281.957 5.79274Z" fill="black" fill-opacity="0.38"/>
<rect x="276.612" y="5.35785" width="3.8822" height="4.20615" transform="rotate(19.807 276.612 5.35785)" fill="black" fill-opacity="0.38"/>
<path fill-rule="evenodd" clip-rule="evenodd" d="M220.093 181.379L211.571 178.309L208.245 187.543L216.768 190.613L220.093 181.379ZM218.401 182.26L212.313 180.067L209.938 186.663L216.025 188.855L218.401 182.26Z" fill="black" fill-opacity="0.38"/>
<rect x="213.056" y="181.825" width="3.8822" height="4.20615" transform="rotate(19.807 213.056 181.825)" fill="black" fill-opacity="0.38"/>
<path fill-rule="evenodd" clip-rule="evenodd" d="M268.756 150.225L260.234 147.156L256.908 156.389L265.431 159.459L268.756 150.225ZM267.064 151.106L260.976 148.913L258.601 155.509L264.688 157.701L267.064 151.106Z" fill="black" fill-opacity="0.38"/>
<rect x="261.719" y="150.671" width="3.8822" height="4.20615" transform="rotate(19.807 261.719 150.671)" fill="black" fill-opacity="0.38"/>
<path fill-rule="evenodd" clip-rule="evenodd" d="M345.547 -0.612109L331.343 -5.72791L325.8 9.66164L340.005 14.7774L345.547 -0.612109ZM342.726 0.855498L332.58 -2.79865L328.621 8.19389L338.767 11.848L342.726 0.855498Z" fill="black" fill-opacity="0.38"/>
<rect x="333.818" y="0.130753" width="6.47034" height="7.01025" transform="rotate(19.807 333.818 0.130753)" fill="black" fill-opacity="0.38"/>
<path fill-rule="evenodd" clip-rule="evenodd" d="M281.991 175.855L267.787 170.739L262.244 186.129L276.448 191.244L281.991 175.855ZM279.17 177.322L269.024 173.668L265.065 184.661L275.211 188.315L279.17 177.322Z" fill="black" fill-opacity="0.38"/>
<rect x="270.262" y="176.598" width="6.47034" height="7.01025" transform="rotate(19.807 270.262 176.598)" fill="black" fill-opacity="0.38"/>
<path fill-rule="evenodd" clip-rule="evenodd" d="M301.9 162.162L293.377 159.092L290.051 168.326L298.574 171.396L301.9 162.162ZM300.207 163.043L294.119 160.85L291.744 167.446L297.832 169.638L300.207 163.043Z" fill="black" fill-opacity="0.38"/>
<rect x="294.862" y="162.608" width="3.8822" height="4.20615" transform="rotate(19.807 294.862 162.608)" fill="black" fill-opacity="0.38"/>
<path fill-rule="evenodd" clip-rule="evenodd" d="M316.793 16.849L308.27 13.7795L304.945 23.0133L313.467 26.0828L316.793 16.849ZM315.1 17.7296L309.013 15.5371L306.637 22.1327L312.725 24.3252L315.1 17.7296Z" fill="black" fill-opacity="0.38"/>
<rect x="309.755" y="17.2947" width="3.8822" height="4.20615" transform="rotate(19.807 309.755 17.2947)" fill="black" fill-opacity="0.38"/>
<path fill-rule="evenodd" clip-rule="evenodd" d="M253.237 193.316L244.714 190.246L241.389 199.48L249.911 202.55L253.237 193.316ZM251.544 194.196L245.457 192.004L243.081 198.599L249.169 200.792L251.544 194.196Z" fill="black" fill-opacity="0.38"/>
<rect x="246.199" y="193.762" width="3.8822" height="4.20615" transform="rotate(19.807 246.199 193.762)" fill="black" fill-opacity="0.38"/>
<path fill-rule="evenodd" clip-rule="evenodd" d="M330.028 42.4786L315.823 37.3628L310.281 52.7524L324.485 57.8682L330.028 42.4786ZM327.207 43.9463L317.061 40.2921L313.102 51.2847L323.248 54.9388L327.207 43.9463Z" fill="black" fill-opacity="0.38"/>
<rect x="318.298" y="43.2215" width="6.47034" height="7.01025" transform="rotate(19.807 318.298 43.2215)" fill="black" fill-opacity="0.38"/>
<path fill-rule="evenodd" clip-rule="evenodd" d="M266.472 218.945L252.267 213.83L246.725 229.219L260.929 234.335L266.472 218.945ZM263.65 220.413L253.505 216.759L249.545 227.752L259.691 231.406L263.65 220.413Z" fill="black" fill-opacity="0.38"/>
<rect x="254.742" y="219.688" width="6.47034" height="7.01025" transform="rotate(19.807 254.742 219.688)" fill="black" fill-opacity="0.38"/>
<path fill-rule="evenodd" clip-rule="evenodd" d="M296.884 30.5417L282.68 25.4259L277.137 40.8155L291.342 45.9313L296.884 30.5417ZM294.063 32.0094L283.917 28.3552L279.958 39.3478L290.104 43.0019L294.063 32.0094Z" fill="black" fill-opacity="0.38"/>
<rect x="285.155" y="31.2846" width="6.47034" height="7.01025" transform="rotate(19.807 285.155 31.2846)" fill="black" fill-opacity="0.38"/>
<path fill-rule="evenodd" clip-rule="evenodd" d="M233.328 207.009L219.124 201.893L213.581 217.282L227.786 222.398L233.328 207.009ZM230.507 208.476L220.361 204.822L216.402 215.815L226.548 219.469L230.507 208.476Z" fill="black" fill-opacity="0.38"/>
<rect x="221.599" y="207.751" width="6.47034" height="7.01025" transform="rotate(19.807 221.599 207.751)" fill="black" fill-opacity="0.38"/>
<path fill-rule="evenodd" clip-rule="evenodd" d="M378.691 11.3248L364.486 6.20895L358.944 21.5985L373.148 26.7143L378.691 11.3248ZM375.87 12.7924L365.724 9.13828L361.765 20.1308L371.911 23.785L375.87 12.7924Z" fill="black" fill-opacity="0.38"/>
<rect x="366.961" y="12.0676" width="6.47034" height="7.01025" transform="rotate(19.807 366.961 12.0676)" fill="black" fill-opacity="0.38"/>
<path fill-rule="evenodd" clip-rule="evenodd" d="M349.936 28.7859L341.414 25.7164L338.088 34.9502L346.611 38.0196L349.936 28.7859ZM348.244 29.6665L342.156 27.474L339.781 34.0695L345.868 36.262L348.244 29.6665Z" fill="black" fill-opacity="0.38"/>
<rect x="342.899" y="29.2316" width="3.8822" height="4.20615" transform="rotate(19.807 342.899 29.2316)" fill="black" fill-opacity="0.38"/>
<path fill-rule="evenodd" clip-rule="evenodd" d="M286.38 205.253L277.858 202.183L274.532 211.417L283.055 214.487L286.38 205.253ZM284.687 206.133L278.6 203.941L276.224 210.536L282.312 212.729L284.687 206.133Z" fill="black" fill-opacity="0.38"/>
<rect x="279.342" y="205.698" width="3.8822" height="4.20615" transform="rotate(19.807 279.342 205.698)" fill="black" fill-opacity="0.38"/>
<path fill-rule="evenodd" clip-rule="evenodd" d="M335.043 174.099L326.52 171.029L323.195 180.263L331.717 183.333L335.043 174.099ZM333.35 174.979L327.263 172.787L324.887 179.382L330.975 181.575L333.35 174.979Z" fill="black" fill-opacity="0.38"/>
<rect x="328.005" y="174.545" width="3.8822" height="4.20615" transform="rotate(19.807 328.005 174.545)" fill="black" fill-opacity="0.38"/>
<path fill-rule="evenodd" clip-rule="evenodd" d="M368.186 186.036L359.664 182.966L356.338 192.2L364.861 195.27L368.186 186.036ZM366.494 186.916L360.406 184.724L358.031 191.319L364.118 193.512L366.494 186.916Z" fill="black" fill-opacity="0.38"/>
<rect x="361.148" y="186.482" width="3.8822" height="4.20615" transform="rotate(19.807 361.148 186.482)" fill="black" fill-opacity="0.38"/>
<path fill-rule="evenodd" clip-rule="evenodd" d="M383.08 40.7228L374.557 37.6533L371.231 46.887L379.754 49.9565L383.08 40.7228ZM381.387 41.6034L375.3 39.4109L372.924 46.0064L379.012 48.1989L381.387 41.6034Z" fill="black" fill-opacity="0.38"/>
<rect x="376.042" y="41.1685" width="3.8822" height="4.20615" transform="rotate(19.807 376.042 41.1685)" fill="black" fill-opacity="0.38"/>
<path fill-rule="evenodd" clip-rule="evenodd" d="M396.314 66.3524L382.11 61.2366L376.567 76.6261L390.772 81.7419L396.314 66.3524ZM393.493 67.82L383.347 64.1658L379.388 75.1584L389.534 78.8125L393.493 67.82Z" fill="black" fill-opacity="0.38"/>
<path fill-rule="evenodd" clip-rule="evenodd" d="M332.758 242.819L318.554 237.703L313.011 253.093L327.215 258.209L332.758 242.819ZM329.937 244.287L319.791 240.633L315.832 251.625L325.978 255.279L329.937 244.287Z" fill="black" fill-opacity="0.38"/>
<path fill-rule="evenodd" clip-rule="evenodd" d="M363.171 54.4155L348.967 49.2997L343.424 64.6893L357.628 69.8051L363.171 54.4155ZM360.35 55.8832L350.204 52.229L346.245 63.2216L356.391 66.8757L360.35 55.8832Z" fill="black" fill-opacity="0.38"/>
<rect x="351.441" y="55.1583" width="6.47034" height="7.01025" transform="rotate(19.807 351.441 55.1583)" fill="black" fill-opacity="0.38"/>
<path fill-rule="evenodd" clip-rule="evenodd" d="M299.615 230.882L285.411 225.767L279.868 241.156L294.072 246.272L299.615 230.882ZM296.794 232.35L286.648 228.696L282.689 239.688L292.835 243.343L296.794 232.35Z" fill="black" fill-opacity="0.38"/>
<rect x="287.885" y="231.625" width="6.47034" height="7.01025" transform="rotate(19.807 287.885 231.625)" fill="black" fill-opacity="0.38"/>
<path fill-rule="evenodd" clip-rule="evenodd" d="M352.667 229.127L344.144 226.057L340.819 235.291L349.341 238.36L352.667 229.127ZM350.974 230.007L344.887 227.815L342.511 234.41L348.599 236.603L350.974 230.007Z" fill="black" fill-opacity="0.38"/>
<rect x="345.629" y="229.572" width="3.8822" height="4.20615" transform="rotate(19.807 345.629 229.572)" fill="black" fill-opacity="0.38"/>
<path fill-rule="evenodd" clip-rule="evenodd" d="M385.81 241.063L377.287 237.994L373.962 247.228L382.484 250.297L385.81 241.063ZM384.117 241.944L378.03 239.752L375.654 246.347L381.742 248.54L384.117 241.944Z" fill="black" fill-opacity="0.38"/>
<path fill-rule="evenodd" clip-rule="evenodd" d="M234.248 38.1179L225.725 35.0485L222.4 44.2822L230.922 47.3517L234.248 38.1179ZM232.555 38.9986L226.468 36.8061L224.092 43.4016L230.18 45.5941L232.555 38.9986Z" fill="black" fill-opacity="0.38"/>
<rect x="227.21" y="38.5637" width="3.8822" height="4.20615" transform="rotate(19.807 227.21 38.5637)" fill="black" fill-opacity="0.38"/>
<path fill-rule="evenodd" clip-rule="evenodd" d="M170.692 214.585L162.169 211.515L158.843 220.749L167.366 223.819L170.692 214.585ZM168.999 215.465L162.911 213.273L160.536 219.869L166.624 222.061L168.999 215.465Z" fill="black" fill-opacity="0.38"/>
<rect x="163.654" y="215.031" width="3.8822" height="4.20615" transform="rotate(19.807 163.654 215.031)" fill="black" fill-opacity="0.38"/>
<path fill-rule="evenodd" clip-rule="evenodd" d="M247.483 63.7475L233.278 58.6317L227.736 74.0213L241.94 79.1371L247.483 63.7475ZM244.661 65.2152L234.516 61.561L230.557 72.5536L240.702 76.2077L244.661 65.2152Z" fill="black" fill-opacity="0.38"/>
<rect x="235.753" y="64.4904" width="6.47034" height="7.01025" transform="rotate(19.807 235.753 64.4904)" fill="black" fill-opacity="0.38"/>
<path fill-rule="evenodd" clip-rule="evenodd" d="M183.926 240.214L169.722 235.099L164.179 250.488L178.384 255.604L183.926 240.214ZM181.105 241.682L170.959 238.028L167 249.02L177.146 252.675L181.105 241.682Z" fill="black" fill-opacity="0.38"/>
<path fill-rule="evenodd" clip-rule="evenodd" d="M267.391 50.0548L258.868 46.9853L255.543 56.2191L264.065 59.2885L267.391 50.0548ZM265.698 50.9354L259.611 48.743L257.236 55.3385L263.323 57.531L265.698 50.9354Z" fill="black" fill-opacity="0.38"/>
<rect x="260.353" y="50.5005" width="3.8822" height="4.20615" transform="rotate(19.807 260.353 50.5005)" fill="black" fill-opacity="0.38"/>
<path fill-rule="evenodd" clip-rule="evenodd" d="M203.835 226.522L195.312 223.452L191.987 232.686L200.509 235.755L203.835 226.522ZM202.142 227.402L196.055 225.21L193.679 231.805L199.767 233.998L202.142 227.402Z" fill="black" fill-opacity="0.38"/>
<rect x="196.797" y="226.967" width="3.8822" height="4.20615" transform="rotate(19.807 196.797 226.967)" fill="black" fill-opacity="0.38"/>
<path fill-rule="evenodd" clip-rule="evenodd" d="M218.728 81.2087L210.206 78.1392L206.88 87.3729L215.403 90.4424L218.728 81.2087ZM217.036 82.0893L210.948 79.8968L208.573 86.4923L214.66 88.6848L217.036 82.0893Z" fill="black" fill-opacity="0.38"/>
<rect x="211.69" y="81.6544" width="3.8822" height="4.20615" transform="rotate(19.807 211.69 81.6544)" fill="black" fill-opacity="0.38"/>
<path fill-rule="evenodd" clip-rule="evenodd" d="M231.963 106.838L217.759 101.722L212.216 117.112L226.42 122.228L231.963 106.838ZM229.142 108.306L218.996 104.652L215.037 115.644L225.183 119.299L229.142 108.306Z" fill="black" fill-opacity="0.38"/>
<rect x="220.233" y="107.581" width="6.47034" height="7.01025" transform="rotate(19.807 220.233 107.581)" fill="black" fill-opacity="0.38"/>
<path fill-rule="evenodd" clip-rule="evenodd" d="M280.626 75.6844L266.422 70.5686L260.879 85.9582L275.083 91.074L280.626 75.6844ZM277.805 77.1521L267.659 73.4979L263.7 84.4905L273.846 88.1446L277.805 77.1521Z" fill="black" fill-opacity="0.38"/>
<rect x="268.896" y="76.4273" width="6.47034" height="7.01025" transform="rotate(19.807 268.896 76.4273)" fill="black" fill-opacity="0.38"/>
<path fill-rule="evenodd" clip-rule="evenodd" d="M251.872 93.1456L243.349 90.0761L240.023 99.3098L248.546 102.379L251.872 93.1456ZM250.179 94.0261L244.091 91.8337L241.716 98.4292L247.804 100.622L250.179 94.0261Z" fill="black" fill-opacity="0.38"/>
<rect x="244.834" y="93.5913" width="3.8822" height="4.20615" transform="rotate(19.807 244.834 93.5913)" fill="black" fill-opacity="0.38"/>
<path fill-rule="evenodd" clip-rule="evenodd" d="M300.534 61.9917L292.012 58.9222L288.686 68.1559L297.209 71.2254L300.534 61.9917ZM298.842 62.8723L292.754 60.6798L290.379 67.2754L296.466 69.4678L298.842 62.8723Z" fill="black" fill-opacity="0.38"/>
<rect x="293.497" y="62.4374" width="3.8822" height="4.20615" transform="rotate(19.807 293.497 62.4374)" fill="black" fill-opacity="0.38"/>
<path fill-rule="evenodd" clip-rule="evenodd" d="M236.978 238.459L228.456 235.389L225.13 244.623L233.653 247.692L236.978 238.459ZM235.286 239.339L229.198 237.147L226.823 243.742L232.91 245.935L235.286 239.339Z" fill="black" fill-opacity="0.38"/>
<rect x="229.94" y="238.904" width="3.8822" height="4.20615" transform="rotate(19.807 229.94 238.904)" fill="black" fill-opacity="0.38"/>
<path fill-rule="evenodd" clip-rule="evenodd" d="M313.769 87.6213L299.565 82.5055L294.022 97.8951L308.227 103.011L313.769 87.6213ZM310.948 89.0889L300.802 85.4348L296.843 96.4273L306.989 100.081L310.948 89.0889Z" fill="black" fill-opacity="0.38"/>
<rect x="302.04" y="88.3642" width="6.47034" height="7.01025" transform="rotate(19.807 302.04 88.3642)" fill="black" fill-opacity="0.38"/>
<path fill-rule="evenodd" clip-rule="evenodd" d="M333.678 73.9286L325.155 70.8591L321.83 80.0928L330.352 83.1623L333.678 73.9286ZM331.985 74.8092L325.898 72.6167L323.522 79.2122L329.61 81.4047L331.985 74.8092Z" fill="black" fill-opacity="0.38"/>
<rect x="326.64" y="74.3743" width="3.8822" height="4.20615" transform="rotate(19.807 326.64 74.3743)" fill="black" fill-opacity="0.38"/>
<path fill-rule="evenodd" clip-rule="evenodd" d="M285.015 105.082L276.492 102.013L273.167 111.247L281.689 114.316L285.015 105.082ZM283.322 105.963L277.235 103.771L274.859 110.366L280.947 112.559L283.322 105.963Z" fill="black" fill-opacity="0.38"/>
<rect x="277.977" y="105.528" width="3.8822" height="4.20615" transform="rotate(19.807 277.977 105.528)" fill="black" fill-opacity="0.38"/>
<path fill-rule="evenodd" clip-rule="evenodd" d="M298.25 130.712L284.045 125.596L278.503 140.986L292.707 146.102L298.25 130.712ZM295.429 132.18L285.283 128.525L281.324 139.518L291.469 143.172L295.429 132.18Z" fill="black" fill-opacity="0.38"/>
<rect x="286.52" y="131.455" width="6.47034" height="7.01025" transform="rotate(19.807 286.52 131.455)" fill="black" fill-opacity="0.38"/>
<path fill-rule="evenodd" clip-rule="evenodd" d="M265.106 118.775L250.902 113.659L245.359 129.049L259.564 134.165L265.106 118.775ZM262.285 120.243L252.139 116.589L248.18 127.581L258.326 131.235L262.285 120.243Z" fill="black" fill-opacity="0.38"/>
<rect x="253.377" y="119.518" width="6.47034" height="7.01025" transform="rotate(19.807 253.377 119.518)" fill="black" fill-opacity="0.38"/>
<path fill-rule="evenodd" clip-rule="evenodd" d="M346.913 99.5582L332.708 94.4424L327.166 109.832L341.37 114.948L346.913 99.5582ZM344.091 101.026L333.946 97.3717L329.987 108.364L340.132 112.018L344.091 101.026Z" fill="black" fill-opacity="0.38"/>
<rect x="335.183" y="100.301" width="6.47034" height="7.01025" transform="rotate(19.807 335.183 100.301)" fill="black" fill-opacity="0.38"/>
<path fill-rule="evenodd" clip-rule="evenodd" d="M318.158 117.019L309.636 113.95L306.31 123.184L314.833 126.253L318.158 117.019ZM316.466 117.9L310.378 115.707L308.003 122.303L314.09 124.495L316.466 117.9Z" fill="black" fill-opacity="0.38"/>
<rect x="311.12" y="117.465" width="3.8822" height="4.20615" transform="rotate(19.807 311.12 117.465)" fill="black" fill-opacity="0.38"/>
<path fill-rule="evenodd" clip-rule="evenodd" d="M366.821 85.8655L358.298 82.796L354.973 92.0297L363.495 95.0992L366.821 85.8655ZM365.128 86.7461L359.041 84.5536L356.665 91.1491L362.753 93.3416L365.128 86.7461Z" fill="black" fill-opacity="0.38"/>
<rect x="359.783" y="86.3112" width="3.8822" height="4.20615" transform="rotate(19.807 359.783 86.3112)" fill="black" fill-opacity="0.38"/>
<path fill-rule="evenodd" clip-rule="evenodd" d="M380.056 111.495L365.852 106.379L360.309 121.769L374.513 126.885L380.056 111.495ZM377.235 112.963L367.089 109.309L363.13 120.301L373.276 123.955L377.235 112.963Z" fill="black" fill-opacity="0.38"/>
<rect x="368.326" y="112.238" width="6.47034" height="7.01025" transform="rotate(19.807 368.326 112.238)" fill="black" fill-opacity="0.38"/>
<path fill-rule="evenodd" clip-rule="evenodd" d="M351.301 128.956L342.779 125.887L339.453 135.12L347.976 138.19L351.301 128.956ZM349.609 129.837L343.521 127.644L341.146 134.24L347.234 136.432L349.609 129.837Z" fill="black" fill-opacity="0.38"/>
<rect x="344.264" y="129.402" width="3.8822" height="4.20615" transform="rotate(19.807 344.264 129.402)" fill="black" fill-opacity="0.38"/>
<path fill-rule="evenodd" clip-rule="evenodd" d="M364.536 154.586L350.332 149.47L344.789 164.86L358.994 169.975L364.536 154.586ZM361.715 156.053L351.569 152.399L347.61 163.392L357.756 167.046L361.715 156.053Z" fill="black" fill-opacity="0.38"/>
<rect x="352.807" y="155.329" width="6.47034" height="7.01025" transform="rotate(19.807 352.807 155.329)" fill="black" fill-opacity="0.38"/>
<path fill-rule="evenodd" clip-rule="evenodd" d="M331.393 142.649L317.189 137.533L311.646 152.923L325.85 158.038L331.393 142.649ZM328.572 144.117L318.426 140.462L314.467 151.455L324.613 155.109L328.572 144.117Z" fill="black" fill-opacity="0.38"/>
<rect x="319.663" y="143.392" width="6.47034" height="7.01025" transform="rotate(19.807 319.663 143.392)" fill="black" fill-opacity="0.38"/>
<path fill-rule="evenodd" clip-rule="evenodd" d="M396.941 168.575L382.736 163.459L377.194 178.848L391.398 183.964L396.941 168.575ZM394.12 170.042L383.974 166.388L380.015 177.381L390.16 181.035L394.12 170.042Z" fill="black" fill-opacity="0.38"/>
<path fill-rule="evenodd" clip-rule="evenodd" d="M384.445 140.893L375.922 137.824L372.597 147.057L381.119 150.127L384.445 140.893ZM382.752 141.774L376.665 139.581L374.289 146.177L380.377 148.369L382.752 141.774Z" fill="black" fill-opacity="0.38"/>
<rect x="377.407" y="141.339" width="3.8822" height="4.20615" transform="rotate(19.807 377.407 141.339)" fill="black" fill-opacity="0.38"/>
</g>
</g>
<rect x="28" y="66" width="48" height="38" rx="8" fill="url(#paint2_linear_117_2)"/>
<path fill-rule="evenodd" clip-rule="evenodd" d="M43.0902 67V74.1931V74.2322L43.1022 74.2695C43.4798 75.4458 43.9022 77.119 44.2359 79.081H28V79.581H44.3179C44.5235 80.8806 44.6873 82.2938 44.7731 83.7642C45.0029 87.701 44.6725 92.0246 43.1104 95.674L43.0902 95.7212V95.7724V103.993V104.243H43.3402H60.1649H60.4823L60.408 103.935L59.9132 101.879L59.9029 101.837L59.8785 101.8C58.9706 100.429 57.5835 98.3713 56.3734 96.6559C55.7686 95.7987 55.2061 95.0241 54.7689 94.4628C54.5508 94.1828 54.3605 93.9514 54.21 93.7885C54.1353 93.7076 54.0653 93.6379 54.003 93.5866C53.9721 93.5611 53.9374 93.5353 53.9006 93.5148C53.8812 93.504 53.8503 93.4882 53.8112 93.4778C53.8035 93.4477 53.7964 93.3997 53.7964 93.3319C53.7964 93.1464 53.849 92.8943 53.9572 92.6697C54.0667 92.4422 54.2143 92.2804 54.3794 92.2162C54.5213 92.1609 54.7289 92.1577 55.0268 92.3497C55.3552 92.9479 55.8315 93.8398 56.2299 94.6381C56.4353 95.0497 56.6185 95.4334 56.7498 95.7381C56.8156 95.8907 56.8668 96.02 56.9012 96.1211C56.9183 96.1717 56.9303 96.2124 56.9377 96.2435C56.9441 96.2701 56.9455 96.2831 56.9458 96.286C56.9459 96.2868 56.9459 96.2868 56.9459 96.2862C56.9459 96.368 56.9727 96.4488 56.9981 96.5113C57.026 96.58 57.0647 96.6557 57.1104 96.7356C57.2021 96.8957 57.3319 97.0889 57.4898 97.3021C57.8063 97.7292 58.2464 98.2511 58.7478 98.7717C59.249 99.2921 59.8158 99.8157 60.3861 100.243C60.8662 100.603 61.3616 100.905 61.8313 101.074C61.8759 101.988 61.8943 102.817 61.8943 103.479H62.3943V100.91V100.717L62.3123 100.696C62.2505 99.5744 62.1497 98.3473 61.9964 97.1535C61.8472 95.9912 61.6474 94.8551 61.3836 93.8769C61.13 92.9362 60.8109 92.1175 60.4039 91.5638C60.3965 91.5097 60.3892 91.4545 60.3819 91.3983H76V90.8983H60.3207C60.0164 88.2653 59.7732 83.8317 60.2092 79.581H76V79.081H59.9841H59.7598L59.7356 79.3041C59.2165 84.0944 59.5667 89.148 59.9173 91.6961L59.9263 91.762L59.9669 91.8147C60.332 92.2885 60.6434 93.0523 60.9009 94.0071C61.1567 94.9556 61.3528 96.0675 61.5005 97.2172C61.6431 98.3276 61.7398 99.4685 61.8017 100.524C61.4542 100.371 61.0755 100.135 60.6861 99.8433C60.143 99.4361 59.5963 98.932 59.1079 98.4249C58.6196 97.9178 58.1937 97.4122 57.8916 97.0044C57.7402 96.8001 57.6227 96.6241 57.5443 96.4871C57.5049 96.4184 57.4779 96.3637 57.4613 96.323C57.4508 96.2973 57.4472 96.2834 57.4461 96.279L57.4458 96.278C57.444 96.1821 57.4105 96.0659 57.3746 95.9604C57.3342 95.8414 57.2772 95.6985 57.209 95.5402C57.0722 95.223 56.8843 94.8296 56.6773 94.4148C56.263 93.5846 55.7664 92.6566 55.4355 92.0553L55.4072 92.0038L55.3588 91.9703C54.9399 91.6804 54.5435 91.6157 54.198 91.7502C53.8681 91.8786 53.6446 92.1664 53.5067 92.4527C53.3675 92.7419 53.2964 93.0679 53.2964 93.3319C53.2964 93.4615 53.3134 93.598 53.3651 93.7121C53.4129 93.8176 53.5113 93.939 53.6732 93.963L53.6849 93.9723C53.7216 94.0026 53.774 94.0534 53.8427 94.1277C53.9789 94.2751 54.159 94.4934 54.3744 94.77C54.8042 95.3219 55.3613 96.0887 55.9648 96.9441C57.1604 98.6388 58.5306 100.671 59.4374 102.039L59.8476 103.743H43.5902V95.8235C45.1777 92.0845 45.5033 87.694 45.2723 83.7351C45.0414 79.7809 44.2537 76.2339 43.5902 74.1541V67H43.0902ZM61.4046 73.6793V67H60.9046V73.6793H61.4046ZM28 91.3983H44.3299V90.8983H28V91.3983Z" fill="url(#paint3_linear_117_2)"/>
<g filter="url(#filter0_d_117_2)">
<path fill-rule="evenodd" clip-rule="evenodd" d="M219.384 143.225L222.298 134.473L228.172 117.636L262.589 129.156C275.182 133.371 288.791 126.574 292.987 113.975C297.182 101.376 290.375 87.7448 277.782 83.5296L244.014 72.2266L244.021 72.2073L243.134 71.8981L252.496 43.7843L290.011 56.3415C317.456 65.5283 332.292 95.236 323.149 122.696C314.005 150.155 284.344 164.969 256.899 155.782L219.384 143.225ZM244.014 72.2266L243.365 72.0093L228.172 117.636L244.014 72.2266ZM243.134 71.8981L222.298 134.473L206.83 178.812L176 168.057L213.191 61.4518L243.134 71.8981Z" fill="#21C25E"/>
</g>
<g filter="url(#filter1_d_117_2)">
<path fill-rule="evenodd" clip-rule="evenodd" d="M221.384 137.225L224.298 128.473L230.172 111.636L264.589 123.156C277.182 127.371 290.791 120.574 294.987 107.975C299.182 95.3756 292.375 81.7448 279.782 77.5296L246.014 66.2266L246.021 66.2073L245.134 65.8981L254.496 37.7843L292.011 50.3415C319.456 59.5283 334.292 89.236 325.149 116.696C316.005 144.155 286.344 158.969 258.899 149.782L221.384 137.225ZM246.014 66.2266L245.365 66.0093L230.172 111.636L246.014 66.2266ZM245.134 65.8981L224.298 128.473L208.83 172.812L178 162.057L215.191 55.4518L245.134 65.8981Z" fill="#21C25E"/>
</g>
<path d="M24.9659 205.909V219H23.4318L16.2983 208.722H16.1705V219H14.5852V205.909H16.1193L23.2784 216.213H23.4062V205.909H24.9659ZM29.7232 205.909V219H28.138V205.909H29.7232ZM43.4357 210H41.8505C41.7567 209.544 41.5927 209.143 41.3583 208.798C41.1282 208.453 40.8469 208.163 40.5146 207.929C40.1864 207.69 39.8221 207.511 39.4215 207.392C39.021 207.273 38.6033 207.213 38.1687 207.213C37.3761 207.213 36.658 207.413 36.0146 207.814C35.3754 208.214 34.8661 208.805 34.4869 209.585C34.1119 210.364 33.9244 211.321 33.9244 212.455C33.9244 213.588 34.1119 214.545 34.4869 215.325C34.8661 216.104 35.3754 216.695 36.0146 217.095C36.658 217.496 37.3761 217.696 38.1687 217.696C38.6033 217.696 39.021 217.636 39.4215 217.517C39.8221 217.398 40.1864 217.221 40.5146 216.987C40.8469 216.748 41.1282 216.456 41.3583 216.111C41.5927 215.761 41.7567 215.361 41.8505 214.909H43.4357C43.3164 215.578 43.0991 216.177 42.7837 216.705C42.4684 217.234 42.0764 217.683 41.6076 218.054C41.1389 218.42 40.6126 218.7 40.0288 218.891C39.4492 219.083 38.8292 219.179 38.1687 219.179C37.0522 219.179 36.0593 218.906 35.19 218.361C34.3207 217.815 33.6367 217.04 33.1381 216.034C32.6396 215.028 32.3903 213.835 32.3903 212.455C32.3903 211.074 32.6396 209.881 33.1381 208.875C33.6367 207.869 34.3207 207.094 35.19 206.548C36.0593 206.003 37.0522 205.73 38.1687 205.73C38.8292 205.73 39.4492 205.826 40.0288 206.018C40.6126 206.21 41.1389 206.491 41.6076 206.862C42.0764 207.228 42.4684 207.675 42.7837 208.204C43.0991 208.728 43.3164 209.327 43.4357 210ZM57.0428 212.455C57.0428 213.835 56.7935 215.028 56.2949 216.034C55.7963 217.04 55.1124 217.815 54.2431 218.361C53.3738 218.906 52.3809 219.179 51.2644 219.179C50.1479 219.179 49.155 218.906 48.2857 218.361C47.4164 217.815 46.7324 217.04 46.2338 216.034C45.7353 215.028 45.486 213.835 45.486 212.455C45.486 211.074 45.7353 209.881 46.2338 208.875C46.7324 207.869 47.4164 207.094 48.2857 206.548C49.155 206.003 50.1479 205.73 51.2644 205.73C52.3809 205.73 53.3738 206.003 54.2431 206.548C55.1124 207.094 55.7963 207.869 56.2949 208.875C56.7935 209.881 57.0428 211.074 57.0428 212.455ZM55.5087 212.455C55.5087 211.321 55.3191 210.364 54.9398 209.585C54.5648 208.805 54.0556 208.214 53.4121 207.814C52.7729 207.413 52.057 207.213 51.2644 207.213C50.4718 207.213 49.7537 207.413 49.1103 207.814C48.4711 208.214 47.9618 208.805 47.5826 209.585C47.2076 210.364 47.0201 211.321 47.0201 212.455C47.0201 213.588 47.2076 214.545 47.5826 215.325C47.9618 216.104 48.4711 216.695 49.1103 217.095C49.7537 217.496 50.4718 217.696 51.2644 217.696C52.057 217.696 52.7729 217.496 53.4121 217.095C54.0556 216.695 54.5648 216.104 54.9398 215.325C55.3191 214.545 55.5087 213.588 55.5087 212.455ZM59.7083 219V205.909H61.2935V217.594H67.3787V219H59.7083ZM71.1964 219H69.5344L74.3413 205.909H75.9776L80.7844 219H79.1225L75.2106 207.98H75.1083L71.1964 219ZM71.81 213.886H78.5089V215.293H71.81V213.886ZM89.9826 209.182C89.9059 208.534 89.5948 208.031 89.0494 207.673C88.5039 207.315 87.8349 207.136 87.0423 207.136C86.4627 207.136 85.9556 207.23 85.521 207.418C85.0906 207.605 84.7539 207.863 84.511 208.191C84.2724 208.519 84.1531 208.892 84.1531 209.31C84.1531 209.659 84.2362 209.96 84.4023 210.211C84.5728 210.458 84.7901 210.665 85.0543 210.831C85.3185 210.993 85.5955 211.127 85.8853 211.234C86.1751 211.336 86.4414 211.419 86.6843 211.483L88.0138 211.841C88.3548 211.93 88.734 212.054 89.1516 212.212C89.5735 212.369 89.9762 212.585 90.3597 212.857C90.7475 213.126 91.0671 213.471 91.3185 213.893C91.57 214.315 91.6957 214.832 91.6957 215.446C91.6957 216.153 91.5103 216.793 91.1396 217.364C90.7731 217.935 90.2362 218.388 89.5288 218.725C88.8256 219.062 87.9712 219.23 86.9656 219.23C86.0281 219.23 85.2163 219.079 84.5302 218.776C83.8484 218.474 83.3114 218.052 82.9194 217.511C82.5316 216.969 82.3121 216.341 82.261 215.625H83.8974C83.94 216.119 84.1062 216.528 84.396 216.852C84.69 217.172 85.0607 217.411 85.5082 217.568C85.9599 217.722 86.4457 217.798 86.9656 217.798C87.5707 217.798 88.114 217.7 88.5955 217.504C89.0771 217.304 89.4585 217.027 89.7397 216.673C90.021 216.315 90.1616 215.898 90.1616 215.42C90.1616 214.986 90.0401 214.632 89.7972 214.359C89.5543 214.087 89.2347 213.865 88.8384 213.695C88.4421 213.524 88.0138 213.375 87.5536 213.247L85.9428 212.787C84.9201 212.493 84.1104 212.073 83.5138 211.528C82.9173 210.982 82.619 210.268 82.619 209.386C82.619 208.653 82.8171 208.014 83.2134 207.469C83.614 206.919 84.1509 206.493 84.8242 206.19C85.5018 205.884 86.2582 205.73 87.0934 205.73C87.9371 205.73 88.6871 205.881 89.3434 206.184C89.9996 206.482 90.5195 206.891 90.9031 207.411C91.2908 207.931 91.4954 208.521 91.5167 209.182H89.9826ZM99.3645 219V205.909H103.788C104.815 205.909 105.654 206.094 106.306 206.465C106.963 206.832 107.448 207.328 107.764 207.955C108.079 208.581 108.237 209.28 108.237 210.051C108.237 210.822 108.079 211.523 107.764 212.154C107.453 212.785 106.971 213.288 106.319 213.663C105.667 214.033 104.832 214.219 103.813 214.219H100.643V212.812H103.762C104.465 212.812 105.03 212.691 105.456 212.448C105.882 212.205 106.191 211.877 106.383 211.464C106.579 211.046 106.677 210.575 106.677 210.051C106.677 209.527 106.579 209.058 106.383 208.645C106.191 208.232 105.88 207.908 105.45 207.673C105.019 207.435 104.448 207.315 103.737 207.315H100.95V219H99.3645ZM111.07 219.102C110.755 219.102 110.484 218.989 110.258 218.763C110.032 218.538 109.919 218.267 109.919 217.952C109.919 217.636 110.032 217.366 110.258 217.14C110.484 216.914 110.755 216.801 111.07 216.801C111.385 216.801 111.656 216.914 111.882 217.14C112.108 217.366 112.221 217.636 112.221 217.952C112.221 218.161 112.167 218.352 112.061 218.527C111.958 218.702 111.82 218.842 111.645 218.949C111.475 219.051 111.283 219.102 111.07 219.102ZM120.195 219V205.909H121.78V217.594H127.865V219H120.195ZM130.32 219V205.909H138.22V207.315H131.905V211.739H137.811V213.145H131.905V217.594H138.322V219H130.32ZM141.614 219H139.952L144.759 205.909H146.396L151.202 219H149.54L145.629 207.98H145.526L141.614 219ZM142.228 213.886H148.927V215.293H142.228V213.886ZM153.241 219V205.909H154.827V217.594H160.912V219H153.241ZM172.469 219H168.429V205.909H172.648C173.918 205.909 175.004 206.171 175.908 206.695C176.811 207.215 177.504 207.963 177.985 208.939C178.467 209.911 178.707 211.074 178.707 212.429C178.707 213.793 178.464 214.967 177.979 215.951C177.493 216.931 176.786 217.685 175.857 218.214C174.928 218.738 173.798 219 172.469 219ZM170.014 217.594H172.366C173.449 217.594 174.346 217.385 175.058 216.967C175.769 216.55 176.3 215.955 176.649 215.184C176.999 214.413 177.173 213.494 177.173 212.429C177.173 211.372 177.001 210.462 176.656 209.7C176.31 208.933 175.795 208.344 175.109 207.935C174.423 207.522 173.568 207.315 172.545 207.315H170.014V217.594ZM181.366 219V205.909H189.267V207.315H182.952V211.739H188.858V213.145H182.952V217.594H189.369V219H181.366ZM204.346 209.182C204.269 208.534 203.958 208.031 203.413 207.673C202.867 207.315 202.198 207.136 201.406 207.136C200.826 207.136 200.319 207.23 199.884 207.418C199.454 207.605 199.117 207.863 198.874 208.191C198.636 208.519 198.516 208.892 198.516 209.31C198.516 209.659 198.599 209.96 198.766 210.211C198.936 210.458 199.153 210.665 199.418 210.831C199.682 210.993 199.959 211.127 200.249 211.234C200.538 211.336 200.805 211.419 201.048 211.483L202.377 211.841C202.718 211.93 203.097 212.054 203.515 212.212C203.937 212.369 204.339 212.585 204.723 212.857C205.111 213.126 205.43 213.471 205.682 213.893C205.933 214.315 206.059 214.832 206.059 215.446C206.059 216.153 205.874 216.793 205.503 217.364C205.136 217.935 204.599 218.388 203.892 218.725C203.189 219.062 202.335 219.23 201.329 219.23C200.391 219.23 199.58 219.079 198.893 218.776C198.212 218.474 197.675 218.052 197.283 217.511C196.895 216.969 196.675 216.341 196.624 215.625H198.261C198.303 216.119 198.469 216.528 198.759 216.852C199.053 217.172 199.424 217.411 199.871 217.568C200.323 217.722 200.809 217.798 201.329 217.798C201.934 217.798 202.477 217.7 202.959 217.504C203.44 217.304 203.822 217.027 204.103 216.673C204.384 216.315 204.525 215.898 204.525 215.42C204.525 214.986 204.403 214.632 204.161 214.359C203.918 214.087 203.598 213.865 203.202 213.695C202.805 213.524 202.377 213.375 201.917 213.247L200.306 212.787C199.283 212.493 198.474 212.073 197.877 211.528C197.281 210.982 196.982 210.268 196.982 209.386C196.982 208.653 197.18 208.014 197.577 207.469C197.977 206.919 198.514 206.493 199.188 206.19C199.865 205.884 200.621 205.73 201.457 205.73C202.3 205.73 203.05 205.881 203.707 206.184C204.363 206.482 204.883 206.891 205.266 207.411C205.654 207.931 205.859 208.521 205.88 209.182H204.346ZM219.711 212.455C219.711 213.835 219.461 215.028 218.963 216.034C218.464 217.04 217.78 217.815 216.911 218.361C216.042 218.906 215.049 219.179 213.932 219.179C212.816 219.179 211.823 218.906 210.954 218.361C210.084 217.815 209.4 217.04 208.902 216.034C208.403 215.028 208.154 213.835 208.154 212.455C208.154 211.074 208.403 209.881 208.902 208.875C209.4 207.869 210.084 207.094 210.954 206.548C211.823 206.003 212.816 205.73 213.932 205.73C215.049 205.73 216.042 206.003 216.911 206.548C217.78 207.094 218.464 207.869 218.963 208.875C219.461 209.881 219.711 211.074 219.711 212.455ZM218.177 212.455C218.177 211.321 217.987 210.364 217.608 209.585C217.233 208.805 216.724 208.214 216.08 207.814C215.441 207.413 214.725 207.213 213.932 207.213C213.14 207.213 212.422 207.413 211.778 207.814C211.139 208.214 210.63 208.805 210.251 209.585C209.876 210.364 209.688 211.321 209.688 212.455C209.688 213.588 209.876 214.545 210.251 215.325C210.63 216.104 211.139 216.695 211.778 217.095C212.422 217.496 213.14 217.696 213.932 217.696C214.725 217.696 215.441 217.496 216.08 217.095C216.724 216.695 217.233 216.104 217.608 215.325C217.987 214.545 218.177 213.588 218.177 212.455ZM230.967 205.909H232.552V214.577C232.552 215.472 232.341 216.271 231.92 216.974C231.502 217.673 230.912 218.224 230.149 218.629C229.386 219.03 228.491 219.23 227.464 219.23C226.437 219.23 225.542 219.03 224.78 218.629C224.017 218.224 223.425 217.673 223.003 216.974C222.585 216.271 222.376 215.472 222.376 214.577V205.909H223.961V214.449C223.961 215.088 224.102 215.657 224.383 216.156C224.665 216.65 225.065 217.04 225.585 217.325C226.109 217.607 226.736 217.747 227.464 217.747C228.193 217.747 228.819 217.607 229.344 217.325C229.868 217.04 230.268 216.65 230.545 216.156C230.827 215.657 230.967 215.088 230.967 214.449V205.909ZM235.283 219V217.849L242.34 207.315H235.207V205.909H244.232V207.06L237.175 217.594H244.309V219H235.283ZM247.505 219H245.843L250.65 205.909H252.286L257.093 219H255.431L251.519 207.98H251.417L247.505 219ZM248.119 213.886H254.817V215.293H248.119V213.886Z" fill="white"/>
<path d="M96 80.5C97.5 83 99 86.5 96 91" stroke="white" stroke-width="2" stroke-linecap="round"/>
<path d="M101.5 78C103.232 81.8095 104.964 87.1429 101.5 94" stroke="white" stroke-width="2" stroke-linecap="round"/>
<path d="M108.5 75C110.232 80.2381 111.964 87.5714 108.5 97" stroke="white" stroke-width="2" stroke-linecap="round"/>
<path d="M113.5 71C116.964 77.9048 120.428 87.5714 113.5 100" stroke="white" stroke-width="2" stroke-linecap="round"/>
<circle cx="310" cy="205" r="25" fill="#FF3940" fill-opacity="0.9"/>
<circle cx="342" cy="205" r="25" fill="#FF9B32" fill-opacity="0.9"/>
<g filter="url(#filter2_d_117_2)">
<path fill-rule="evenodd" clip-rule="evenodd" d="M49 10H37V22H49V10ZM47.2856 11.7142H38.7142V20.2857H47.2856V11.7142Z" fill="#51B97E"/>
<rect x="40.4285" y="13.4285" width="5.14286" height="5.14286" fill="#51B97E"/>
<mask id="path-239-outside-1_117_2" maskUnits="userSpaceOnUse" x="11" y="14.47" width="128" height="32" fill="black">
<rect fill="white" x="11" y="14.47" width="128" height="32"/>
<path fill-rule="evenodd" clip-rule="evenodd" d="M38.8768 26V40.97H41.3618V26H38.8768ZM72.7229 21V40.97H75.3129V33.235H81.8929C85.0195 33.235 87.4695 32.5 89.2429 31.03C91.0162 29.5367 91.9029 27.4833 91.9029 24.87C91.9029 22.2567 91.0162 20.2033 89.2429 18.71C87.4695 17.2167 85.0195 16.47 81.8929 16.47H78V18.71H81.8229C84.2495 18.71 86.1045 19.2467 87.3879 20.32C88.6712 21.37 89.3129 22.8867 89.3129 24.87C89.3129 26.8067 88.6712 28.3117 87.3879 29.385C86.1045 30.435 84.2495 30.96 81.8229 30.96H75.3129V21H72.7229ZM13 40.97V21H15.59V30.96H22.1C24.5267 30.96 26.3817 30.435 27.665 29.385C28.9483 28.3117 29.59 26.8067 29.59 24.87C29.59 22.8867 28.9483 21.37 27.665 20.32C26.3817 19.2467 24.5267 18.71 22.1 18.71H18V16.47H22.17C25.2967 16.47 27.7467 17.2167 29.52 18.71C31.2933 20.2033 32.18 22.2567 32.18 24.87C32.18 27.4833 31.2933 29.5367 29.52 31.03C27.7467 32.5 25.2967 33.235 22.17 33.235H15.59V40.97H13ZM53.1062 39.955C54.5528 40.7483 56.1862 41.145 58.0062 41.145C59.5695 41.145 60.9812 40.8417 62.2412 40.235C63.5012 39.605 64.4928 38.695 65.2162 37.505L63.3612 36.245C62.7545 37.155 61.9845 37.8317 61.0512 38.275C60.1178 38.7183 59.1028 38.94 58.0062 38.94C56.6762 38.94 55.4745 38.6483 54.4012 38.065C53.3512 37.4583 52.5228 36.6183 51.9162 35.545C51.3328 34.4483 51.0412 33.1883 51.0412 31.765C51.0412 30.365 51.3328 29.1167 51.9162 28.02C52.5228 26.9233 53.3512 26.0833 54.4012 25.5C55.4745 24.8933 56.6762 24.59 58.0062 24.59C59.1028 24.59 60.1178 24.8233 61.0512 25.29C61.9845 25.7333 62.7545 26.41 63.3612 27.32L65.2162 26.06C64.4928 24.87 63.5012 23.9717 62.2412 23.365C61.0045 22.735 59.5928 22.42 58.0062 22.42C56.1862 22.42 54.5528 22.8167 53.1062 23.61C51.6828 24.4033 50.5628 25.5117 49.7462 26.935C48.9295 28.3583 48.5212 29.9683 48.5212 31.765C48.5212 33.5617 48.9295 35.1833 49.7462 36.63C50.5628 38.0533 51.6828 39.1617 53.1062 39.955ZM110.877 24.24C109.594 23.0267 107.751 22.42 105.347 22.42C103.901 22.42 102.524 22.6417 101.217 23.085C99.9106 23.505 98.7906 24.1117 97.8572 24.905L98.9772 26.76C99.7472 26.0833 100.669 25.5583 101.742 25.185C102.816 24.7883 103.936 24.59 105.102 24.59C106.806 24.59 108.101 25.01 108.987 25.85C109.874 26.6667 110.317 27.8683 110.317 29.455V30.575H104.472C101.999 30.575 100.191 31.0533 99.0472 32.01C97.9272 32.9667 97.3672 34.2267 97.3672 35.79C97.3672 37.4 97.9739 38.695 99.1872 39.675C100.401 40.655 102.034 41.145 104.087 41.145C105.581 41.145 106.864 40.8767 107.937 40.34C109.034 39.8033 109.862 39.0567 110.422 38.1V40.97H112.802V29.56C112.802 27.2033 112.161 25.43 110.877 24.24ZM108.077 38.24C107.074 38.87 105.872 39.185 104.472 39.185C103.002 39.185 101.859 38.8817 101.042 38.275C100.226 37.645 99.8172 36.7933 99.8172 35.72C99.8172 33.5267 101.392 32.43 104.542 32.43H110.317V35.44C109.827 36.6533 109.081 37.5867 108.077 38.24ZM136.78 22.56L127.575 43.175C127.277 43.863 126.961 44.4713 126.627 45H123.743C124.303 44.5236 124.822 43.7636 125.3 42.72L126.105 40.935L117.88 22.56H120.47L127.4 38.205L134.33 22.56H136.78Z"/>
</mask>
<path fill-rule="evenodd" clip-rule="evenodd" d="M38.8768 26V40.97H41.3618V26H38.8768ZM72.7229 21V40.97H75.3129V33.235H81.8929C85.0195 33.235 87.4695 32.5 89.2429 31.03C91.0162 29.5367 91.9029 27.4833 91.9029 24.87C91.9029 22.2567 91.0162 20.2033 89.2429 18.71C87.4695 17.2167 85.0195 16.47 81.8929 16.47H78V18.71H81.8229C84.2495 18.71 86.1045 19.2467 87.3879 20.32C88.6712 21.37 89.3129 22.8867 89.3129 24.87C89.3129 26.8067 88.6712 28.3117 87.3879 29.385C86.1045 30.435 84.2495 30.96 81.8229 30.96H75.3129V21H72.7229ZM13 40.97V21H15.59V30.96H22.1C24.5267 30.96 26.3817 30.435 27.665 29.385C28.9483 28.3117 29.59 26.8067 29.59 24.87C29.59 22.8867 28.9483 21.37 27.665 20.32C26.3817 19.2467 24.5267 18.71 22.1 18.71H18V16.47H22.17C25.2967 16.47 27.7467 17.2167 29.52 18.71C31.2933 20.2033 32.18 22.2567 32.18 24.87C32.18 27.4833 31.2933 29.5367 29.52 31.03C27.7467 32.5 25.2967 33.235 22.17 33.235H15.59V40.97H13ZM53.1062 39.955C54.5528 40.7483 56.1862 41.145 58.0062 41.145C59.5695 41.145 60.9812 40.8417 62.2412 40.235C63.5012 39.605 64.4928 38.695 65.2162 37.505L63.3612 36.245C62.7545 37.155 61.9845 37.8317 61.0512 38.275C60.1178 38.7183 59.1028 38.94 58.0062 38.94C56.6762 38.94 55.4745 38.6483 54.4012 38.065C53.3512 37.4583 52.5228 36.6183 51.9162 35.545C51.3328 34.4483 51.0412 33.1883 51.0412 31.765C51.0412 30.365 51.3328 29.1167 51.9162 28.02C52.5228 26.9233 53.3512 26.0833 54.4012 25.5C55.4745 24.8933 56.6762 24.59 58.0062 24.59C59.1028 24.59 60.1178 24.8233 61.0512 25.29C61.9845 25.7333 62.7545 26.41 63.3612 27.32L65.2162 26.06C64.4928 24.87 63.5012 23.9717 62.2412 23.365C61.0045 22.735 59.5928 22.42 58.0062 22.42C56.1862 22.42 54.5528 22.8167 53.1062 23.61C51.6828 24.4033 50.5628 25.5117 49.7462 26.935C48.9295 28.3583 48.5212 29.9683 48.5212 31.765C48.5212 33.5617 48.9295 35.1833 49.7462 36.63C50.5628 38.0533 51.6828 39.1617 53.1062 39.955ZM110.877 24.24C109.594 23.0267 107.751 22.42 105.347 22.42C103.901 22.42 102.524 22.6417 101.217 23.085C99.9106 23.505 98.7906 24.1117 97.8572 24.905L98.9772 26.76C99.7472 26.0833 100.669 25.5583 101.742 25.185C102.816 24.7883 103.936 24.59 105.102 24.59C106.806 24.59 108.101 25.01 108.987 25.85C109.874 26.6667 110.317 27.8683 110.317 29.455V30.575H104.472C101.999 30.575 100.191 31.0533 99.0472 32.01C97.9272 32.9667 97.3672 34.2267 97.3672 35.79C97.3672 37.4 97.9739 38.695 99.1872 39.675C100.401 40.655 102.034 41.145 104.087 41.145C105.581 41.145 106.864 40.8767 107.937 40.34C109.034 39.8033 109.862 39.0567 110.422 38.1V40.97H112.802V29.56C112.802 27.2033 112.161 25.43 110.877 24.24ZM108.077 38.24C107.074 38.87 105.872 39.185 104.472 39.185C103.002 39.185 101.859 38.8817 101.042 38.275C100.226 37.645 99.8172 36.7933 99.8172 35.72C99.8172 33.5267 101.392 32.43 104.542 32.43H110.317V35.44C109.827 36.6533 109.081 37.5867 108.077 38.24ZM136.78 22.56L127.575 43.175C127.277 43.863 126.961 44.4713 126.627 45H123.743C124.303 44.5236 124.822 43.7636 125.3 42.72L126.105 40.935L117.88 22.56H120.47L127.4 38.205L134.33 22.56H136.78Z" fill="#21C25E"/>
<path d="M38.8768 40.97H37.4768V42.37H38.8768V40.97ZM38.8768 26V24.6H37.4768V26H38.8768ZM41.3618 40.97V42.37H42.7618V40.97H41.3618ZM41.3618 26H42.7618V24.6H41.3618V26ZM72.7229 40.97H71.3228V42.37H72.7229V40.97ZM72.7229 21V19.6H71.3228V21H72.7229ZM75.3129 40.97V42.37H76.7129V40.97H75.3129ZM75.3129 33.235V31.835H73.9128V33.235H75.3129ZM89.2429 31.03L90.1363 32.1079L90.1446 32.1009L89.2429 31.03ZM78 16.47V15.07H76.6V16.47H78ZM78 18.71H76.6V20.11H78V18.71ZM87.3879 20.32L86.4897 21.3939L86.4955 21.3988L86.5013 21.4035L87.3879 20.32ZM87.3879 29.385L88.2744 30.4685L88.2802 30.4638L88.286 30.4589L87.3879 29.385ZM75.3129 30.96H73.9128V32.36H75.3129V30.96ZM75.3129 21H76.7129V19.6H75.3129V21ZM13 21V19.6H11.6V21H13ZM13 40.97H11.6V42.37H13V40.97ZM15.59 21H16.99V19.6H15.59V21ZM15.59 30.96H14.19V32.36H15.59V30.96ZM27.665 29.385L28.5515 30.4685L28.5574 30.4638L28.5632 30.4589L27.665 29.385ZM27.665 20.32L26.7668 21.3939L26.7726 21.3988L26.7785 21.4035L27.665 20.32ZM18 18.71H16.6V20.11H18V18.71ZM18 16.47V15.07H16.6V16.47H18ZM29.52 18.71L28.6182 19.7809L28.6182 19.7809L29.52 18.71ZM29.52 31.03L30.4135 32.1079L30.4218 32.1009L29.52 31.03ZM15.59 33.235V31.835H14.19V33.235H15.59ZM15.59 40.97V42.37H16.99V40.97H15.59ZM53.1062 39.955L52.4246 41.1779L52.433 41.1825L53.1062 39.955ZM62.2412 40.235L62.8485 41.4964L62.8579 41.4919L62.8673 41.4872L62.2412 40.235ZM65.2162 37.505L66.4125 38.2322L67.1039 37.0948L66.0028 36.3469L65.2162 37.505ZM63.3612 36.245L64.1478 35.0869L62.9796 34.2934L62.1963 35.4684L63.3612 36.245ZM54.4012 38.065L53.7008 39.2772L53.7166 39.2864L53.7327 39.2951L54.4012 38.065ZM51.9162 35.545L50.6801 36.2025L50.6886 36.2183L50.6974 36.2339L51.9162 35.545ZM51.9162 28.02L50.6911 27.3423L50.6856 27.3524L50.6801 27.3625L51.9162 28.02ZM54.4012 25.5L55.0811 26.7239L55.0901 26.7188L54.4012 25.5ZM61.0512 25.29L60.4251 26.5422L60.4377 26.5485L60.4505 26.5546L61.0512 25.29ZM63.3612 27.32L62.1963 28.0966L62.9796 29.2716L64.1478 28.4781L63.3612 27.32ZM65.2162 26.06L66.0028 27.2181L67.1039 26.4702L66.4125 25.3328L65.2162 26.06ZM62.2412 23.365L61.6057 24.6125L61.6197 24.6196L61.6338 24.6264L62.2412 23.365ZM53.1062 23.61L52.433 22.3824L52.4246 22.3871L53.1062 23.61ZM49.7462 26.935L48.5319 26.2383L49.7462 26.935ZM49.7462 36.63L48.527 37.3183L48.5319 37.3267L49.7462 36.63ZM110.877 24.24L109.915 25.2574L109.925 25.2666L110.877 24.24ZM101.217 23.085L101.646 24.4178L101.656 24.4144L101.667 24.4108L101.217 23.085ZM97.8572 24.905L96.9505 23.8383L96.0434 24.6094L96.6587 25.6286L97.8572 24.905ZM98.9772 26.76L97.7787 27.4836L98.644 28.9167L99.9014 27.8116L98.9772 26.76ZM101.742 25.185L102.202 26.5073L102.215 26.5029L102.228 26.4982L101.742 25.185ZM108.987 25.85L108.024 26.8663L108.032 26.8731L108.039 26.8798L108.987 25.85ZM110.317 30.575V31.975H111.717V30.575H110.317ZM99.0472 32.01L98.1488 30.9363L98.1434 30.9409L98.1379 30.9455L99.0472 32.01ZM107.937 40.34L107.322 39.0825L107.311 39.0878L107.937 40.34ZM110.422 38.1H111.822V32.937L109.214 37.3928L110.422 38.1ZM110.422 40.97H109.022V42.37H110.422V40.97ZM112.802 40.97V42.37H114.202V40.97H112.802ZM108.077 38.24L108.822 39.4256L108.831 39.4195L108.841 39.4132L108.077 38.24ZM101.042 38.275L100.187 39.3835L100.197 39.3913L100.207 39.3988L101.042 38.275ZM110.317 32.43H111.717V31.03H110.317V32.43ZM110.317 35.44L111.615 35.9642L111.717 35.712V35.44H110.317ZM127.575 43.175L126.297 42.6042L126.293 42.6117L126.29 42.6193L127.575 43.175ZM136.78 22.56L138.058 23.1308L138.938 21.16H136.78V22.56ZM126.627 45V46.4H127.398L127.81 45.7486L126.627 45ZM123.743 45L122.836 43.9341L119.94 46.4H123.743V45ZM125.3 42.72L126.573 43.3033L126.576 43.2955L125.3 42.72ZM126.105 40.935L127.381 41.5105L127.64 40.9371L127.383 40.363L126.105 40.935ZM117.88 22.56V21.16H115.719L116.602 23.132L117.88 22.56ZM120.47 22.56L121.75 21.993L121.381 21.16H120.47V22.56ZM127.4 38.205L126.12 38.772L127.4 41.6618L128.68 38.772L127.4 38.205ZM134.33 22.56V21.16H133.419L133.05 21.993L134.33 22.56ZM40.2768 40.97V26H37.4768V40.97H40.2768ZM41.3618 39.57H38.8768V42.37H41.3618V39.57ZM39.9618 26V40.97H42.7618V26H39.9618ZM41.3618 24.6H38.8768V27.4H41.3618V24.6ZM74.1229 40.97V21H71.3228V40.97H74.1229ZM75.3129 39.57H72.7229V42.37H75.3129V39.57ZM73.9128 33.235V40.97H76.7129V33.235H73.9128ZM81.8929 31.835H75.3129V34.635H81.8929V31.835ZM88.3494 29.9522C86.9043 31.1501 84.8098 31.835 81.8929 31.835V34.635C85.2293 34.635 88.0347 33.8499 90.1363 32.1078L88.3494 29.9522ZM90.5029 24.87C90.5029 27.1293 89.756 28.7676 88.3411 29.9591L90.1446 32.1009C92.2764 30.3058 93.3029 27.8373 93.3029 24.87H90.5029ZM88.3411 19.7809C89.756 20.9724 90.5029 22.6107 90.5029 24.87H93.3029C93.3029 21.9027 92.2764 19.4343 90.1446 17.6391L88.3411 19.7809ZM81.8929 17.87C84.805 17.87 86.8963 18.5642 88.3411 19.7809L90.1446 17.6391C88.0428 15.8691 85.234 15.07 81.8929 15.07V17.87ZM78 17.87H81.8929V15.07H78V17.87ZM79.4 18.71V16.47H76.6V18.71H79.4ZM81.8229 17.31H78V20.11H81.8229V17.31ZM88.286 19.2461C86.6587 17.885 84.4335 17.31 81.8229 17.31V20.11C84.0655 20.11 85.5504 20.6083 86.4897 21.3939L88.286 19.2461ZM90.7129 24.87C90.7129 22.558 89.9473 20.6052 88.2744 19.2365L86.5013 21.4035C87.3951 22.1348 87.9128 23.2153 87.9128 24.87H90.7129ZM88.286 30.4589C89.9394 29.0761 90.7129 27.1484 90.7129 24.87H87.9128C87.9128 26.4649 87.403 27.5472 86.4897 28.3111L88.286 30.4589ZM81.8229 32.36C84.4274 32.36 86.6478 31.7994 88.2744 30.4685L86.5013 28.3015C85.5612 29.0706 84.0716 29.56 81.8229 29.56V32.36ZM75.3129 32.36H81.8229V29.56H75.3129V32.36ZM73.9128 21V30.96H76.7129V21H73.9128ZM72.7229 22.4H75.3129V19.6H72.7229V22.4ZM11.6 21V40.97H14.4V21H11.6ZM15.59 19.6H13V22.4H15.59V19.6ZM16.99 30.96V21H14.19V30.96H16.99ZM22.1 29.56H15.59V32.36H22.1V29.56ZM26.7785 28.3015C25.8384 29.0706 24.3488 29.56 22.1 29.56V32.36C24.7046 32.36 26.9249 31.7994 28.5515 30.4685L26.7785 28.3015ZM28.19 24.87C28.19 26.4649 27.6802 27.5472 26.7668 28.3111L28.5632 30.4589C30.2165 29.0761 30.99 27.1484 30.99 24.87H28.19ZM26.7785 21.4035C27.6722 22.1348 28.19 23.2153 28.19 24.87H30.99C30.99 22.558 30.2244 20.6052 28.5515 19.2365L26.7785 21.4035ZM22.1 20.11C24.3427 20.11 25.8275 20.6083 26.7668 21.3939L28.5632 19.2461C26.9358 17.885 24.7106 17.31 22.1 17.31V20.11ZM18 20.11H22.1V17.31H18V20.11ZM16.6 16.47V18.71H19.4V16.47H16.6ZM22.17 15.07H18V17.87H22.17V15.07ZM30.4218 17.6391C28.3199 15.8691 25.5112 15.07 22.17 15.07V17.87C25.0822 17.87 27.1734 18.5642 28.6182 19.7809L30.4218 17.6391ZM33.58 24.87C33.58 21.9027 32.5535 19.4343 30.4218 17.6391L28.6182 19.7809C30.0332 20.9724 30.78 22.6107 30.78 24.87H33.58ZM30.4218 32.1009C32.5535 30.3058 33.58 27.8373 33.58 24.87H30.78C30.78 27.1293 30.0332 28.7676 28.6182 29.9591L30.4218 32.1009ZM22.17 34.635C25.5064 34.635 28.3119 33.8499 30.4135 32.1078L28.6265 29.9522C27.1815 31.1501 25.0869 31.835 22.17 31.835V34.635ZM15.59 34.635H22.17V31.835H15.59V34.635ZM16.99 40.97V33.235H14.19V40.97H16.99ZM13 42.37H15.59V39.57H13V42.37ZM58.0062 39.745C56.3967 39.745 54.999 39.3963 53.7793 38.7275L52.433 41.1825C54.1067 42.1004 55.9756 42.545 58.0062 42.545V39.745ZM61.6338 38.9736C60.5846 39.4788 59.3842 39.745 58.0062 39.745V42.545C59.7548 42.545 61.3777 42.2046 62.8485 41.4964L61.6338 38.9736ZM64.0198 36.7778C63.4351 37.7399 62.6423 38.4692 61.6151 38.9828L62.8673 41.4872C64.3601 40.7408 65.5506 39.6501 66.4125 38.2322L64.0198 36.7778ZM62.5745 37.4031L64.4295 38.6631L66.0028 36.3469L64.1478 35.0869L62.5745 37.4031ZM61.6519 39.5396C62.8275 38.9812 63.7875 38.1295 64.526 37.0216L62.1963 35.4684C61.7215 36.1806 61.1416 36.6822 60.4505 37.0104L61.6519 39.5396ZM58.0062 40.34C59.2976 40.34 60.5194 40.0775 61.6519 39.5396L60.4505 37.0104C59.7163 37.3592 58.9081 37.54 58.0062 37.54V40.34ZM53.7327 39.2951C55.0291 39.9996 56.4639 40.34 58.0062 40.34V37.54C56.8885 37.54 55.92 37.297 55.0697 36.8349L53.7327 39.2951ZM50.6974 36.2339C51.4249 37.521 52.4306 38.5433 53.7008 39.2772L55.1016 36.8528C54.2717 36.3733 53.6208 35.7157 53.135 34.8561L50.6974 36.2339ZM49.6412 31.765C49.6412 33.3839 49.9744 34.8756 50.6801 36.2025L53.1522 34.8875C52.6913 34.0211 52.4412 32.9928 52.4412 31.765H49.6412ZM50.6801 27.3625C49.9761 28.6862 49.6412 30.1652 49.6412 31.765H52.4412C52.4412 30.5648 52.6896 29.5472 53.1522 28.6775L50.6801 27.3625ZM53.7213 24.2762C52.4318 24.9926 51.419 26.0266 50.6911 27.3423L53.1412 28.6977C53.6267 27.8201 54.2706 27.1741 55.0811 26.7238L53.7213 24.2762ZM58.0062 23.19C56.4544 23.19 55.0122 23.5465 53.7123 24.2812L55.0901 26.7188C55.9368 26.2402 56.898 25.99 58.0062 25.99V23.19ZM61.6773 24.0378C60.5396 23.469 59.3088 23.19 58.0062 23.19V25.99C58.8969 25.99 59.6961 26.1777 60.4251 26.5422L61.6773 24.0378ZM64.526 26.5434C63.7875 25.4356 62.8275 24.5838 61.6519 24.0254L60.4505 26.5546C61.1416 26.8828 61.7215 27.3845 62.1963 28.0966L64.526 26.5434ZM64.4295 24.9019L62.5745 26.1619L64.1478 28.4781L66.0028 27.2181L64.4295 24.9019ZM61.6338 24.6264C62.6511 25.1162 63.4377 25.8295 64.0198 26.7872L66.4125 25.3328C65.548 23.9105 64.3513 22.8271 62.8485 22.1036L61.6338 24.6264ZM58.0062 23.82C59.4038 23.82 60.5924 24.0962 61.6057 24.6125L62.8767 22.1175C61.4167 21.3738 59.7819 21.02 58.0062 21.02V23.82ZM53.7793 24.8375C54.999 24.1687 56.3967 23.82 58.0062 23.82V21.02C55.9756 21.02 54.1067 21.4646 52.433 22.3825L53.7793 24.8375ZM50.9605 27.6317C51.6516 26.4273 52.5881 25.5015 53.7878 24.8329L52.4246 22.3871C50.7775 23.3051 49.4741 24.5961 48.5319 26.2383L50.9605 27.6317ZM49.9212 31.765C49.9212 30.189 50.2768 28.8233 50.9605 27.6317L48.5319 26.2383C47.5822 27.8934 47.1212 29.7477 47.1212 31.765H49.9212ZM50.9653 35.9418C50.2768 34.7221 49.9212 33.3408 49.9212 31.765H47.1212C47.1212 33.7826 47.5822 35.6446 48.527 37.3182L50.9653 35.9418ZM53.7878 38.7321C52.5881 38.0635 51.6516 37.1378 50.9605 35.9333L48.5319 37.3267C49.4741 38.9689 50.7775 40.2599 52.4246 41.1779L53.7878 38.7321ZM105.347 23.82C107.524 23.82 108.974 24.3671 109.915 25.2573L111.839 23.2227C110.214 21.6862 107.977 21.02 105.347 21.02V23.82ZM101.667 24.4108C102.822 24.0189 104.046 23.82 105.347 23.82V21.02C103.755 21.02 102.226 21.2644 100.767 21.7592L101.667 24.4108ZM98.7639 25.9717C99.5409 25.3113 100.493 24.7882 101.646 24.4178L100.789 21.7522C99.3279 22.2218 98.0402 22.9121 96.9505 23.8383L98.7639 25.9717ZM100.176 26.0364L99.0557 24.1814L96.6587 25.6286L97.7787 27.4836L100.176 26.0364ZM101.282 23.8627C100.057 24.289 98.9729 24.9 98.0531 25.7084L99.9014 27.8116C100.522 27.2666 101.281 26.8277 102.202 26.5073L101.282 23.8627ZM105.102 23.19C103.773 23.19 102.489 23.4166 101.257 23.8718L102.228 26.4982C103.142 26.1601 104.098 25.99 105.102 25.99V23.19ZM109.95 24.8337C108.716 23.6642 107.021 23.19 105.102 23.19V25.99C106.59 25.99 107.485 26.3558 108.024 26.8663L109.95 24.8337ZM111.717 29.455C111.717 27.6072 111.194 25.9789 109.936 24.8202L108.039 26.8798C108.554 27.3545 108.917 28.1295 108.917 29.455H111.717ZM111.717 30.575V29.455H108.917V30.575H111.717ZM104.472 31.975H110.317V29.175H104.472V31.975ZM99.9456 33.0837C100.717 32.438 102.127 31.975 104.472 31.975V29.175C101.87 29.175 99.6637 29.6687 98.1488 30.9363L99.9456 33.0837ZM98.7672 35.79C98.7672 34.6076 99.169 33.7472 99.9565 33.0745L98.1379 30.9455C96.6854 32.1862 95.9672 33.8458 95.9672 35.79H98.7672ZM100.067 38.5859C99.1947 37.8815 98.7672 36.9928 98.7672 35.79H95.9672C95.9672 37.8072 96.753 39.5086 98.3076 40.7641L100.067 38.5859ZM104.087 39.745C102.252 39.745 100.962 39.3088 100.067 38.5859L98.3076 40.7641C99.8391 42.0012 101.816 42.545 104.087 42.545V39.745ZM107.311 39.0878C106.474 39.5064 105.415 39.745 104.087 39.745V42.545C105.746 42.545 107.254 42.2469 108.563 41.5922L107.311 39.0878ZM109.214 37.3928C108.807 38.0878 108.197 38.6541 107.322 39.0825L108.553 41.5975C109.871 40.9525 110.917 40.0256 111.63 38.8073L109.214 37.3928ZM111.822 40.97V38.1H109.022V40.97H111.822ZM112.802 39.57H110.422V42.37H112.802V39.57ZM111.402 29.56V40.97H114.202V29.56H111.402ZM109.925 25.2666C110.834 26.1091 111.402 27.4523 111.402 29.56H114.202C114.202 26.9544 113.487 24.7509 111.829 23.2134L109.925 25.2666ZM104.472 40.585C106.087 40.585 107.558 40.2194 108.822 39.4256L107.333 37.0544C106.59 37.5206 105.657 37.785 104.472 37.785V40.585ZM100.207 39.3988C101.352 40.2489 102.83 40.585 104.472 40.585V37.785C103.174 37.785 102.366 37.5145 101.877 37.1512L100.207 39.3988ZM98.4172 35.72C98.4172 37.2068 99.0109 38.4761 100.187 39.3835L101.897 37.1665C101.44 36.8139 101.217 36.3799 101.217 35.72H98.4172ZM104.542 31.03C102.848 31.03 101.328 31.3171 100.198 32.1036C98.9769 32.9541 98.4172 34.241 98.4172 35.72H101.217C101.217 35.0057 101.445 34.6475 101.798 34.4014C102.244 34.0912 103.087 33.83 104.542 33.83V31.03ZM110.317 31.03H104.542V33.83H110.317V31.03ZM111.717 35.44V32.43H108.917V35.44H111.717ZM108.841 39.4132C110.107 38.5888 111.028 37.4176 111.615 35.9642L109.019 34.9158C108.626 35.8891 108.054 36.5846 107.313 37.0668L108.841 39.4132ZM128.853 43.7458L138.058 23.1308L135.502 21.9892L126.297 42.6042L128.853 43.7458ZM127.81 45.7486C128.19 45.1477 128.539 44.4729 128.86 43.7307L126.29 42.6193C126.016 43.2531 125.733 43.7949 125.444 44.2514L127.81 45.7486ZM123.743 46.4H126.627V43.6H123.743V46.4ZM124.027 42.1367C123.591 43.0884 123.177 43.6436 122.836 43.9341L124.651 46.0659C125.429 45.4036 126.052 44.4389 126.573 43.3033L124.027 42.1367ZM124.829 40.3595L124.024 42.1445L126.576 43.2955L127.381 41.5105L124.829 40.3595ZM116.602 23.132L124.827 41.507L127.383 40.363L119.158 21.988L116.602 23.132ZM120.47 21.16H117.88V23.96H120.47V21.16ZM128.68 37.638L121.75 21.993L119.19 23.127L126.12 38.772L128.68 37.638ZM133.05 21.993L126.12 37.638L128.68 38.772L135.61 23.127L133.05 21.993ZM136.78 21.16H134.33V23.96H136.78V21.16Z" fill="#21C25E" mask="url(#path-239-outside-1_117_2)"/>
</g>
<defs>
<filter id="filter0_d_117_2" x="172" y="43.7843" width="157.848" height="143.028" filterUnits="userSpaceOnUse" color-interpolation-filters="sRGB">
<feFlood flood-opacity="0" result="BackgroundImageFix"/>
<feColorMatrix in="SourceAlpha" type="matrix" values="0 0 0 0 0 0 0 0 0 0 0 0 0 0 0 0 0 0 127 0" result="hardAlpha"/>
<feOffset dy="4"/>
<feGaussianBlur stdDeviation="2"/>
<feComposite in2="hardAlpha" operator="out"/>
<feColorMatrix type="matrix" values="0 0 0 0 0 0 0 0 0 0 0 0 0 0 0 0 0 0 0.25 0"/>
<feBlend mode="normal" in2="BackgroundImageFix" result="effect1_dropShadow_117_2"/>
<feBlend mode="normal" in="SourceGraphic" in2="effect1_dropShadow_117_2" result="shape"/>
</filter>
<filter id="filter1_d_117_2" x="174" y="37.7843" width="157.848" height="143.028" filterUnits="userSpaceOnUse" color-interpolation-filters="sRGB">
<feFlood flood-opacity="0" result="BackgroundImageFix"/>
<feColorMatrix in="SourceAlpha" type="matrix" values="0 0 0 0 0 0 0 0 0 0 0 0 0 0 0 0 0 0 127 0" result="hardAlpha"/>
<feOffset dy="4"/>
<feGaussianBlur stdDeviation="2"/>
<feComposite in2="hardAlpha" operator="out"/>
<feColorMatrix type="matrix" values="0 0 0 0 0 0 0 0 0 0 0 0 0 0 0 0 0 0 0.25 0"/>
<feBlend mode="normal" in2="BackgroundImageFix" result="effect1_dropShadow_117_2"/>
<feBlend mode="normal" in="SourceGraphic" in2="effect1_dropShadow_117_2" result="shape"/>
</filter>
<filter id="filter2_d_117_2" x="9.60001" y="10" width="135.338" height="46.4" filterUnits="userSpaceOnUse" color-interpolation-filters="sRGB">
<feFlood flood-opacity="0" result="BackgroundImageFix"/>
<feColorMatrix in="SourceAlpha" type="matrix" values="0 0 0 0 0 0 0 0 0 0 0 0 0 0 0 0 0 0 127 0" result="hardAlpha"/>
<feOffset dx="2" dy="6"/>
<feGaussianBlur stdDeviation="2"/>
<feComposite in2="hardAlpha" operator="out"/>
<feColorMatrix type="matrix" values="0 0 0 0 0 0 0 0 0 0 0 0 0 0 0 0 0 0 0.25 0"/>
<feBlend mode="normal" in2="BackgroundImageFix" result="effect1_dropShadow_117_2"/>
<feBlend mode="normal" in="SourceGraphic" in2="effect1_dropShadow_117_2" result="shape"/>
</filter>
<linearGradient id="paint0_linear_117_2" x1="191" y1="0" x2="191" y2="240" gradientUnits="userSpaceOnUse">
<stop stop-color="#003802"/>
<stop offset="0.908333" stop-color="#088833"/>
</linearGradient>
<linearGradient id="paint1_linear_117_2" x1="191" y1="0" x2="191" y2="240" gradientUnits="userSpaceOnUse">
<stop stop-color="#003802"/>
<stop offset="0.908333" stop-color="#088833"/>
</linearGradient>
<linearGradient id="paint2_linear_117_2" x1="52" y1="66" x2="52" y2="104" gradientUnits="userSpaceOnUse">
<stop stop-color="#F9CC3B"/>
<stop offset="1" stop-color="#8D8158"/>
</linearGradient>
<linearGradient id="paint3_linear_117_2" x1="52" y1="67" x2="52" y2="104.243" gradientUnits="userSpaceOnUse">
<stop/>
<stop offset="0.9999" stop-opacity="0.557292"/>
<stop offset="1" stop-opacity="0"/>
</linearGradient>
</defs>
</svg>
